<?xml version="1.0" encoding="utf-8"?>
<!-- Generator: Adobe Illustrator 25.4.1, SVG Export Plug-In . SVG Version: 6.00 Build 0)  -->
<svg version="1.1" id="Layer_1" xmlns="http://www.w3.org/2000/svg" xmlns:xlink="http://www.w3.org/1999/xlink" x="0px" y="0px"
	 viewBox="0 0 160 160" style="enable-background:new 0 0 160 160;" xml:space="preserve">
<style type="text/css">
	.st0{fill:#FFFFFF;}
	.st1{fill:url(#b_00000083809298755076713030000005044192026403651236_);}
	.st2{fill:url(#b_00000174571165853878731040000014506351385189406893_);}
	.st3{fill:url(#b_00000165946952776639220900000004601740996518708618_);}
	.st4{fill:url(#b_00000062915271930575339920000000199966619585140908_);}
</style>
<g>
	<path id="b" class="st0" d="M89.9,152.4c2.1,0,3.8,1.6,3.9,3.7c0,2.1-1.6,3.8-3.7,3.9c0,0-0.1,0-0.1,0c-2.1,0-3.8-1.8-3.7-3.9
		C86.2,154.1,87.8,152.4,89.9,152.4z M66.2,155.2c0.5-2,2.6-3.3,4.7-2.7c2,0.5,3.3,2.6,2.7,4.7c0,0,0,0,0,0c-0.6,2-2.7,3.2-4.7,2.6
		C66.8,159.2,65.7,157.2,66.2,155.2L66.2,155.2z M113,150c0.6,2-0.6,4.1-2.6,4.7c-2,0.6-4.1-0.6-4.7-2.6c0,0,0,0,0-0.1
		c-0.5-2,0.7-4.1,2.7-4.6C110.4,146.9,112.4,148,113,150z M52.4,147.6c1.8,1,2.5,3.3,1.5,5.2s-3.3,2.5-5.2,1.5c0,0-0.1,0-0.1-0.1
		c-1.8-1.1-2.4-3.4-1.3-5.2C48.3,147.2,50.6,146.6,52.4,147.6z M81.2,143.3c1.8,0.2,3.1,1.8,2.9,3.6c-0.2,1.8-1.8,3.1-3.6,2.9
		c0,0-0.1,0-0.1,0c-1.8-0.3-3.1-1.9-2.8-3.7C77.8,144.3,79.4,143.1,81.2,143.3z M64.5,141.4c1.7,0.7,2.6,2.6,1.9,4.3
		c-0.7,1.7-2.6,2.6-4.3,1.9c0,0,0,0,0,0c-1.7-0.7-2.5-2.7-1.8-4.4C60.9,141.5,62.8,140.7,64.5,141.4z M101.4,143.7
		c0.3,1.8-1,3.5-2.8,3.8c-1.8,0.3-3.5-1-3.8-2.8c0,0,0-0.1,0-0.1c-0.2-1.8,1.1-3.5,2.9-3.7C99.5,140.7,101.1,142,101.4,143.7z
		 M130,139.1c1.1,1.8,0.5,4.1-1.3,5.2c-1.8,1.1-4.1,0.5-5.2-1.3c0,0,0-0.1-0.1-0.1c-1-1.8-0.4-4.2,1.5-5.2
		C126.6,136.8,128.9,137.4,130,139.1z M35.8,138.2c1.5,1.5,1.6,3.9,0.1,5.4c-1.5,1.5-3.9,1.6-5.4,0.1c0,0-0.1-0.1-0.1-0.1
		c-1.5-1.5-1.4-3.9,0.1-5.4C32,136.8,34.3,136.8,35.8,138.2L35.8,138.2z M88.4,137.7c1.7,0,3,1.4,3,3s-1.4,3-3,3s-3-1.4-3-3
		S86.7,137.7,88.4,137.7z M73.2,137.8c1.6,0.4,2.6,2.1,2.1,3.7s-2.1,2.6-3.7,2.1l0,0c-1.6-0.4-2.6-2.1-2.1-3.7
		S71.6,137.3,73.2,137.8L73.2,137.8z M49,135.2c1.5,1.1,1.8,3.2,0.7,4.7c-1.1,1.5-3.2,1.8-4.7,0.7c0,0-0.1,0-0.1-0.1
		c-1.5-1.1-1.7-3.2-0.6-4.7C45.5,134.4,47.5,134.1,49,135.2z M117.3,136.1c0.7,1.7-0.1,3.7-1.7,4.4c-1.7,0.7-3.7-0.1-4.4-1.7
		c0,0,0,0,0,0c-0.7-1.7,0.1-3.7,1.8-4.4C114.7,133.6,116.6,134.4,117.3,136.1z M106.7,135.8c0.4,1.6-0.5,3.3-2.1,3.7
		s-3.3-0.5-3.7-2.1c-0.4-1.6,0.5-3.3,2.1-3.7S106.2,134.2,106.7,135.8L106.7,135.8L106.7,135.8z M58.6,133.9
		c1.4,0.8,1.9,2.7,1.1,4.1c-0.8,1.4-2.7,1.9-4.1,1.1l0,0c-1.4-0.8-1.9-2.7-1.1-4.1C55.3,133.6,57.1,133.1,58.6,133.9L58.6,133.9z
		 M80.9,130.5c1.4,0.2,2.5,1.5,2.3,2.9c-0.2,1.4-1.5,2.5-2.9,2.3c-1.4-0.2-2.5-1.5-2.3-2.9C78.2,131.3,79.5,130.3,80.9,130.5
		L80.9,130.5L80.9,130.5z M67.7,129c1.4,0.5,2.1,2,1.6,3.4c-0.5,1.4-2,2.1-3.4,1.6c0,0-0.1,0-0.1-0.1c-1.3-0.6-2-2.1-1.4-3.5
		C64.9,129.1,66.4,128.5,67.7,129z M97,130.8c0.2,1.4-0.7,2.8-2.2,3.1c-1.4,0.2-2.8-0.7-3.1-2.2c0-0.1,0-0.1,0-0.2
		c-0.2-1.5,0.9-2.8,2.3-2.9C95.5,128.5,96.7,129.5,97,130.8z M120.2,127.2c0.8,1.4,0.3,3.3-1.1,4.1c-1.4,0.8-3.3,0.3-4.1-1.1
		s-0.3-3.3,1.1-4.1C117.5,125.2,119.3,125.7,120.2,127.2z M45.4,126.4c1.2,1.2,1.2,3.1,0,4.3s-3.1,1.2-4.3,0c-1.2-1.2-1.2-3.1,0-4.3
		S44.3,125.3,45.4,126.4C45.4,126.4,45.4,126.4,45.4,126.4z M143.6,124.2c1.5,1.5,1.5,3.9,0.1,5.4c-1.5,1.5-3.9,1.5-5.4,0.1
		c0,0-0.1-0.1-0.1-0.1c-1.5-1.5-1.4-3.9,0.1-5.4C139.7,122.7,142.1,122.7,143.6,124.2z M35.6,125.2c1.2,1.4,0.9,3.5-0.5,4.7
		c-1.4,1.2-3.5,0.9-4.7-0.5c0,0,0-0.1-0.1-0.1c-1.1-1.5-0.8-3.6,0.6-4.7C32.4,123.5,34.4,123.8,35.6,125.2z M22.3,124.8
		c1.1,1.8,0.4,4.2-1.4,5.2c-1.8,1.1-4.2,0.4-5.2-1.4c0,0,0,0,0,0c-1-1.8-0.4-4.2,1.4-5.2C18.9,122.3,21.2,123,22.3,124.8z
		 M130.8,124.5c1.2,1.4,0.9,3.5-0.5,4.7s-3.5,0.9-4.7-0.5c0,0,0-0.1-0.1-0.1c-1.1-1.5-0.8-3.6,0.6-4.7
		C127.6,122.9,129.6,123.1,130.8,124.5z M55.4,124.1c1.2,0.8,1.5,2.5,0.6,3.7s-2.5,1.5-3.7,0.6c0,0-0.1-0.1-0.1-0.1
		c-1.1-0.9-1.3-2.6-0.4-3.7C52.6,123.5,54.2,123.2,55.4,124.1z M109.6,124.8c0.6,1.3,0,2.9-1.3,3.5c-1.3,0.6-2.9,0-3.5-1.3
		c0,0,0-0.1,0-0.1c-0.5-1.4,0.1-2.9,1.5-3.4C107.6,122.9,109.1,123.5,109.6,124.8L109.6,124.8z M131,115.3c1.2,1.2,1.2,3.1,0,4.3
		s-3.1,1.2-4.3,0s-1.2-3.1,0-4.3S129.8,114.1,131,115.3z M44.7,116.1c0.9,1.1,0.8,2.8-0.4,3.7c-1.1,0.9-2.8,0.8-3.7-0.4
		c0,0-0.1-0.1-0.1-0.1c-0.9-1.2-0.6-2.8,0.6-3.7C42.2,114.8,43.8,115,44.7,116.1z M34.7,115.8c0.8,1.4,0.3,3.3-1.1,4.1
		c-1.4,0.8-3.3,0.3-4.1-1.1s-0.3-3.3,1.1-4.1C32,113.8,33.9,114.3,34.7,115.8L34.7,115.8z M120.3,115.6c0.9,1.1,0.8,2.8-0.4,3.7
		s-2.8,0.8-3.7-0.4c0,0-0.1-0.1-0.1-0.1c-0.9-1.2-0.6-2.8,0.6-3.7C117.8,114.3,119.4,114.5,120.3,115.6z M25.2,112.1
		c0.7,1.7-0.1,3.7-1.7,4.4s-3.7-0.1-4.4-1.7c0,0,0,0,0,0c-0.7-1.7,0.1-3.7,1.8-4.4C22.5,109.6,24.5,110.4,25.2,112.1z M140.7,109.9
		c1.5,1.1,1.8,3.2,0.7,4.7s-3.2,1.8-4.7,0.7c-1.5-1.1-1.7-3.2-0.6-4.7C137.2,109.1,139.3,108.8,140.7,109.9L140.7,109.9z
		 M152.8,106.2c1.8,1,2.5,3.4,1.4,5.2c-1,1.8-3.4,2.5-5.2,1.4c0,0,0,0,0,0c-1.8-1.1-2.4-3.4-1.4-5.2
		C148.7,105.8,151,105.2,152.8,106.2z M12.6,108.3c0.6,2-0.6,4.1-2.6,4.7c-2,0.6-4.1-0.6-4.7-2.6c0,0,0,0,0-0.1
		c-0.5-2,0.7-4.1,2.7-4.6C10,105.1,12.1,106.3,12.6,108.3z M36.5,105.7c0.6,1.3,0,2.9-1.3,3.5s-2.9,0-3.5-1.3c0,0,0-0.1-0.1-0.1
		c-0.5-1.4,0.1-2.9,1.5-3.4C34.4,103.8,35.9,104.4,36.5,105.7z M128.2,104c1.2,0.8,1.5,2.5,0.6,3.7c-0.8,1.2-2.5,1.5-3.7,0.6
		c0,0-0.1-0.1-0.1-0.1c-1.1-0.9-1.3-2.6-0.4-3.7C125.5,103.4,127.1,103.2,128.2,104z M138.3,101.1c1.4,0.8,1.9,2.7,1.1,4.1
		c-0.8,1.4-2.7,1.9-4.1,1.1s-1.9-2.7-1.1-4.1C135,100.7,136.9,100.2,138.3,101.1L138.3,101.1z M27.1,102.7c0.4,1.6-0.5,3.3-2.1,3.7
		c-1.6,0.4-3.3-0.5-3.7-2.1c-0.4-1.6,0.5-3.3,2.1-3.7C25,100.1,26.6,101.1,27.1,102.7L27.1,102.7z M18.6,96.7c0.3,1.8-1,3.5-2.8,3.8
		s-3.5-1-3.8-2.8c-0.2-1.8,1.1-3.5,2.9-3.7C16.7,93.7,18.3,95,18.6,96.7L18.6,96.7z M146.6,93.2c1.7,0.7,2.6,2.6,1.9,4.3
		c-0.7,1.7-2.6,2.6-4.3,1.9c0,0,0,0,0,0c-1.7-0.7-2.5-2.7-1.8-4.4C143,93.3,144.9,92.5,146.6,93.2z M31.3,93.5
		c0.2,1.4-0.7,2.8-2.2,3.1c-1.4,0.2-2.8-0.7-3.1-2.2c0-0.1,0-0.1,0-0.2c-0.2-1.5,0.9-2.8,2.3-2.9C29.8,91.2,31,92.2,31.3,93.5z
		 M132.9,90.7c1.4,0.5,2.1,2,1.6,3.4s-2,2.1-3.4,1.6c-0.1,0-0.1,0-0.1-0.1c-1.3-0.6-1.9-2.2-1.4-3.5
		C130.1,90.9,131.5,90.2,132.9,90.7z M152.5,89.2c0.5-2,2.6-3.3,4.6-2.7c2,0.5,3.3,2.6,2.7,4.6c0,0,0,0,0,0.1
		c-0.6,2-2.7,3.2-4.7,2.6C153.1,93.2,152,91.2,152.5,89.2z M3.8,86.1c2.1,0,3.8,1.6,3.9,3.7S6.1,93.7,4,93.7c-0.1,0-0.1,0-0.2,0
		c-2.1,0-3.8-1.8-3.7-3.9C0.1,87.8,1.8,86.1,3.8,86.1L3.8,86.1z M141.7,85.4c1.6,0.4,2.6,2.1,2.1,3.7c-0.4,1.6-2.1,2.6-3.7,2.1
		s-2.6-2.1-2.1-3.7S140.1,85,141.7,85.4z M20,85.1c1.7,0,3,1.4,3,3s-1.4,3-3,3l0,0c-1.7,0-3-1.4-3-3S18.4,85.1,20,85.1z M13.1,76.7
		c1.8,0.2,3.1,1.8,2.9,3.6s-1.8,3.1-3.6,2.9c0,0-0.1,0-0.1,0c-1.8-0.2-3.1-1.9-2.8-3.7C9.7,77.8,11.3,76.5,13.1,76.7z M26.9,77.7
		c1.4,0.2,2.5,1.5,2.3,2.9C29,82,27.7,83,26.3,82.9l0,0c-1.4-0.2-2.5-1.5-2.3-2.9C24.2,78.5,25.5,77.5,26.9,77.7z M147.7,75.7
		c1.8,0.2,3.1,1.8,2.9,3.6c-0.2,1.8-1.8,3.1-3.6,2.9c0,0-0.1,0-0.1,0c-1.8-0.2-3.1-1.9-2.8-3.7C144.3,76.8,145.9,75.5,147.7,75.7z
		 M133.7,76.8c1.4,0.2,2.5,1.5,2.3,2.9c-0.2,1.4-1.5,2.5-2.9,2.3c0,0,0,0,0,0c-1.4-0.2-2.5-1.5-2.3-2.9
		C131,77.7,132.3,76.7,133.7,76.8z M141,69.4c1.7,0,3,1.4,3,3s-1.4,3-3,3c0,0,0,0,0,0c-1.7,0-3-1.4-3-3
		C138,70.7,139.3,69.4,141,69.4z M20.8,69.3c1.6,0.4,2.6,2.1,2.1,3.7c-0.4,1.6-2.1,2.6-3.7,2.1c-1.6-0.4-2.6-2.1-2.1-3.7
		C17.6,69.8,19.2,68.8,20.8,69.3L20.8,69.3z M156.2,66.3c2.1,0,3.8,1.6,3.9,3.7c0,2.1-1.6,3.8-3.7,3.9c0,0-0.1,0-0.1,0
		c-2.1,0-3.8-1.7-3.8-3.8C152.4,68,154.1,66.3,156.2,66.3L156.2,66.3z M0.2,68.9c0.5-2,2.6-3.3,4.6-2.7s3.3,2.6,2.7,4.6
		c0,0,0,0,0,0.1c-0.6,2-2.7,3.2-4.7,2.6C0.8,72.9-0.4,70.9,0.2,68.9z M29.4,63.8c1.4,0.5,2.1,2,1.5,3.4c-0.5,1.4-2,2.1-3.4,1.5
		c0,0-0.1,0-0.1,0c-1.3-0.6-2-2.1-1.4-3.5C26.6,63.9,28.1,63.3,29.4,63.8L29.4,63.8z M134.3,65.1c0.2,1.4-0.7,2.8-2.2,3
		s-2.8-0.7-3-2.2c0,0,0-0.1,0-0.1c-0.2-1.5,0.9-2.8,2.3-2.9C132.8,62.8,134.1,63.7,134.3,65.1z M16.3,59.3c1.7,0.7,2.6,2.6,1.9,4.3
		c-0.7,1.7-2.6,2.6-4.3,1.9c0,0,0,0,0,0c-1.7-0.7-2.5-2.7-1.8-4.4C12.7,59.4,14.6,58.6,16.3,59.3z M148.4,61c0.3,1.8-1,3.5-2.8,3.8
		c-1.8,0.3-3.5-1-3.8-2.8c0,0,0-0.1,0-0.1c-0.2-1.8,1.1-3.5,2.9-3.7C146.5,57.9,148.1,59.2,148.4,61L148.4,61z M139.8,56.2
		c0.4,1.6-0.5,3.3-2.1,3.7c-1.6,0.4-3.3-0.5-3.7-2.1l0,0c-0.4-1.6,0.5-3.3,2.1-3.7C137.7,53.7,139.4,54.6,139.8,56.2z M25.7,54.2
		c1.4,0.8,1.9,2.7,1.1,4.1c-0.8,1.4-2.7,1.9-4.1,1.1s-1.9-2.7-1.1-4.1C22.4,53.9,24.3,53.4,25.7,54.2L25.7,54.2z M35.3,51.2
		c1.2,0.8,1.5,2.5,0.6,3.7s-2.5,1.5-3.7,0.6c0,0-0.1-0.1-0.1-0.1c-1.1-0.9-1.3-2.6-0.4-3.7C32.6,50.6,34.1,50.4,35.3,51.2z
		 M128.7,51.6c0.6,1.3,0,2.9-1.3,3.5c-1.3,0.6-2.9,0-3.5-1.3c0,0,0-0.1-0.1-0.1c-0.5-1.4,0.1-2.9,1.5-3.4
		C126.6,49.7,128.1,50.3,128.7,51.6z M154.7,49.7c0.6,2-0.6,4.1-2.6,4.7s-4.1-0.6-4.7-2.6c0,0,0,0,0-0.1c-0.5-2,0.7-4.1,2.7-4.6
		C152.1,46.5,154.2,47.7,154.7,49.7z M11,47.2c1.8,1,2.5,3.4,1.5,5.2s-3.4,2.5-5.2,1.5c0,0-0.1,0-0.1,0c-1.8-1.1-2.4-3.4-1.4-5.2
		C6.8,46.8,9.2,46.1,11,47.2L11,47.2z M23.7,43.4c1.5,1.1,1.8,3.2,0.7,4.7c-1.1,1.5-3.2,1.8-4.7,0.7c0,0-0.1,0-0.1-0.1
		c-1.5-1.1-1.7-3.2-0.6-4.7C20.2,42.6,22.2,42.3,23.7,43.4z M141.3,43.9c0.7,1.7,0,3.7-1.7,4.4s-3.7,0-4.4-1.7c0,0,0,0,0-0.1
		c-0.7-1.7,0.1-3.7,1.8-4.4C138.7,41.5,140.6,42.3,141.3,43.9z M131.6,41.7c0.8,1.4,0.3,3.3-1.1,4.1c-1.4,0.8-3.3,0.3-4.1-1.1l0,0
		c-0.8-1.4-0.3-3.3,1.1-4.1C128.9,39.8,130.7,40.3,131.6,41.7L131.6,41.7z M34.3,40.9c1.2,1.2,1.2,3.1,0,4.3s-3.1,1.2-4.3,0
		s-1.2-3.1,0-4.3S33.1,39.7,34.3,40.9z M44.2,40.6c0.9,1.1,0.8,2.8-0.4,3.7c-1.1,0.9-2.8,0.8-3.7-0.4c0,0-0.1-0.1-0.1-0.1
		c-0.9-1.2-0.6-2.8,0.6-3.7C41.7,39.3,43.3,39.5,44.2,40.6z M119.8,40c0.9,1.1,0.8,2.8-0.4,3.7s-2.8,0.8-3.7-0.4
		c0,0-0.1-0.1-0.1-0.1c-0.9-1.2-0.6-2.8,0.6-3.7C117.3,38.7,118.9,38.9,119.8,40z M144.3,31.4c1.1,1.8,0.4,4.2-1.4,5.2
		c-1.8,1.1-4.2,0.4-5.2-1.4c0,0,0,0,0,0c-1-1.8-0.4-4.2,1.4-5.2C141,29,143.3,29.6,144.3,31.4z M21.8,30.4c1.5,1.5,1.5,3.9,0.1,5.4
		c-1.5,1.5-3.9,1.5-5.4,0.1c0,0-0.1-0.1-0.1-0.1c-1.5-1.5-1.4-3.9,0.1-5.4C18,29,20.3,29,21.8,30.4z M55.6,32.6
		c0.6,1.3,0,2.9-1.3,3.5c-1.3,0.6-2.9,0-3.5-1.3c0,0,0-0.1-0.1-0.1c-0.5-1.4,0.1-2.9,1.5-3.4C53.5,30.7,55,31.3,55.6,32.6z
		 M108.1,31.1c1.2,0.9,1.5,2.5,0.6,3.7c-0.9,1.2-2.5,1.5-3.7,0.6c0,0-0.1-0.1-0.1-0.1c-1.1-0.9-1.3-2.6-0.4-3.7
		C105.4,30.5,107,30.3,108.1,31.1z M34.9,30c1.2,1.4,0.9,3.5-0.5,4.7c-1.4,1.2-3.5,0.9-4.7-0.5c0,0,0-0.1-0.1-0.1
		c-1.1-1.5-0.8-3.6,0.6-4.7C31.7,28.3,33.8,28.6,34.9,30z M119.8,29.8c1.2,1.2,1.2,3.1,0,4.3s-3.1,1.2-4.3,0s-1.2-3.1,0-4.3
		S118.7,28.6,119.8,29.8z M46.1,30.3c0.8,1.4,0.3,3.3-1.1,4.1c-1.4,0.8-3.3,0.3-4.1-1.1C40,31.9,40.5,30,42,29.2
		C43.4,28.4,45.2,28.9,46.1,30.3L46.1,30.3L46.1,30.3z M130.1,29.3c1.2,1.4,0.9,3.5-0.5,4.7c-1.4,1.2-3.5,0.9-4.7-0.5
		c0,0,0-0.1-0.1-0.1c-1.1-1.5-0.8-3.6,0.6-4.7C126.9,27.7,129,27.9,130.1,29.3z M68.6,27.8c0.2,1.4-0.7,2.8-2.2,3
		c-1.4,0.2-2.8-0.7-3-2.2c0,0,0-0.1,0-0.1c-0.2-1.5,0.9-2.8,2.3-2.9C67.1,25.5,68.4,26.4,68.6,27.8z M94.6,25.5
		c1.4,0.5,2.1,2,1.5,3.4s-2,2.1-3.4,1.5c0,0-0.1,0-0.1,0c-1.3-0.6-2-2.1-1.4-3.5C91.8,25.7,93.3,25,94.6,25.5z M80.1,23.6
		c1.4,0.2,2.5,1.5,2.3,2.9c-0.2,1.4-1.5,2.5-2.9,2.3l0,0c-1.4-0.2-2.5-1.5-2.3-2.9C77.4,24.5,78.7,23.5,80.1,23.6L80.1,23.6z
		 M105.4,21.3c1.4,0.8,1.9,2.7,1.1,4.1c-0.8,1.4-2.7,1.9-4.1,1.1l0,0c-1.4-0.8-1.9-2.7-1.1-4.1C102.2,21,104,20.5,105.4,21.3z
		 M60.2,23.1c0.4,1.6-0.5,3.3-2.1,3.7c-1.6,0.4-3.3-0.5-3.7-2.1l0,0c-0.4-1.6,0.5-3.3,2.1-3.7C58.1,20.5,59.8,21.5,60.2,23.1
		L60.2,23.1z M49.2,19.9c0.7,1.7-0.1,3.7-1.7,4.4c-1.7,0.7-3.7-0.1-4.4-1.7c0,0,0,0,0,0c-0.7-1.7,0.1-3.7,1.8-4.4
		C46.5,17.5,48.5,18.3,49.2,19.9z M115.4,18.1c1.5,1.1,1.8,3.2,0.7,4.7c-1.1,1.5-3.2,1.8-4.7,0.7l0,0c-1.5-1.1-1.7-3.2-0.6-4.7
		C111.9,17.3,114,17,115.4,18.1L115.4,18.1z M129.6,16.4c1.5,1.5,1.5,3.9,0.1,5.4c-1.5,1.5-3.9,1.5-5.4,0.1c0,0-0.1-0.1-0.1-0.1
		c-1.5-1.5-1.4-3.9,0.1-5.4C125.7,15,128.1,15,129.6,16.4z M89.3,16.9c1.6,0.4,2.6,2.1,2.1,3.7c-0.4,1.6-2.1,2.6-3.7,2.1
		s-2.6-2.1-2.1-3.7C86.1,17.4,87.7,16.5,89.3,16.9z M72.6,16.8c1.7,0,3,1.4,3,3s-1.4,3-3,3l0,0c-1.7,0-3-1.4-3-3S71,16.8,72.6,16.8
		L72.6,16.8z M36.6,17.1c1.1,1.8,0.4,4.2-1.4,5.2s-4.2,0.4-5.2-1.4s-0.4-4.2,1.4-5.2C33.2,14.6,35.6,15.2,36.6,17.1z M65.6,13.9
		c0.3,1.8-1,3.5-2.8,3.8s-3.5-1-3.8-2.8l0,0c-0.2-1.8,1.1-3.5,2.9-3.7C63.7,10.9,65.3,12.2,65.6,13.9L65.6,13.9z M98.4,11.1
		c1.7,0.7,2.6,2.6,1.9,4.3c-0.7,1.7-2.6,2.6-4.3,1.9c0,0,0,0,0,0c-1.7-0.7-2.5-2.7-1.8-4.4C94.8,11.2,96.7,10.4,98.4,11.1z
		 M80.1,8.7c1.8,0.2,3.1,1.8,3,3.6c-0.2,1.8-1.8,3.1-3.6,3c-0.1,0-0.1,0-0.2,0c-1.8-0.3-3.1-1.9-2.8-3.7C76.8,9.7,78.4,8.5,80.1,8.7
		z M111.4,5.8c1.8,1,2.5,3.3,1.5,5.2s-3.3,2.5-5.2,1.5c0,0-0.1,0-0.1-0.1c-1.8-1.1-2.4-3.4-1.3-5.2C107.4,5.4,109.6,4.8,111.4,5.8z
		 M54.4,8c0.6,2-0.6,4.1-2.6,4.7c-2,0.6-4.1-0.6-4.7-2.6c0,0,0-0.1,0-0.1c-0.5-2,0.7-4.1,2.7-4.6C51.8,4.8,53.8,6,54.4,8L54.4,8z
		 M91.1,0.2c2,0.5,3.3,2.6,2.8,4.6s-2.6,3.3-4.6,2.8c0,0-0.1,0-0.1,0c-2-0.6-3.2-2.7-2.6-4.7C87.1,0.8,89.1-0.4,91.1,0.2L91.1,0.2z
		 M70.1,0c2.1,0,3.8,1.6,3.9,3.7s-1.6,3.8-3.7,3.9c0,0-0.1,0-0.1,0c-2.1,0-3.8-1.8-3.7-3.9C66.4,1.7,68,0,70.1,0z"/>
</g>
<g>
	
		<linearGradient id="b_00000120538861732284046070000007220986407353423804_" gradientUnits="userSpaceOnUse" x1="-222.5941" y1="474.0311" x2="-223.0941" y2="474.5311" gradientTransform="matrix(160.0204 0 0 -160.001 35779.6406 76005.4766)">
		<stop  offset="0" style="stop-color:#8700FF"/>
		<stop  offset="1" style="stop-color:#EE00E1;stop-opacity:0"/>
	</linearGradient>
	
		<path id="b_00000029764459406684326200000002231183239529471890_" style="fill:url(#b_00000120538861732284046070000007220986407353423804_);" d="
		M89.9,152.4c2.1,0,3.8,1.6,3.9,3.7c0,2.1-1.6,3.8-3.7,3.9c0,0-0.1,0-0.1,0c-2.1,0-3.8-1.8-3.7-3.9
		C86.2,154.1,87.8,152.4,89.9,152.4z M66.2,155.2c0.5-2,2.6-3.3,4.7-2.7c2,0.5,3.3,2.6,2.7,4.7c0,0,0,0,0,0c-0.6,2-2.7,3.2-4.7,2.6
		C66.8,159.2,65.7,157.2,66.2,155.2L66.2,155.2z M113,150c0.6,2-0.6,4.1-2.6,4.7c-2,0.6-4.1-0.6-4.7-2.6c0,0,0,0,0-0.1
		c-0.5-2,0.7-4.1,2.7-4.6C110.4,146.9,112.4,148,113,150z M52.4,147.6c1.8,1,2.5,3.3,1.5,5.2s-3.3,2.5-5.2,1.5c0,0-0.1,0-0.1-0.1
		c-1.8-1.1-2.4-3.4-1.3-5.2C48.3,147.2,50.6,146.6,52.4,147.6z M81.2,143.3c1.8,0.2,3.1,1.8,2.9,3.6c-0.2,1.8-1.8,3.1-3.6,2.9
		c0,0-0.1,0-0.1,0c-1.8-0.3-3.1-1.9-2.8-3.7C77.8,144.3,79.4,143.1,81.2,143.3z M64.5,141.4c1.7,0.7,2.6,2.6,1.9,4.3
		c-0.7,1.7-2.6,2.6-4.3,1.9c0,0,0,0,0,0c-1.7-0.7-2.5-2.7-1.8-4.4C60.9,141.5,62.8,140.7,64.5,141.4z M101.4,143.7
		c0.3,1.8-1,3.5-2.8,3.8c-1.8,0.3-3.5-1-3.8-2.8c0,0,0-0.1,0-0.1c-0.2-1.8,1.1-3.5,2.9-3.7C99.5,140.7,101.1,142,101.4,143.7z
		 M130,139.1c1.1,1.8,0.5,4.1-1.3,5.2c-1.8,1.1-4.1,0.5-5.2-1.3c0,0,0-0.1-0.1-0.1c-1-1.8-0.4-4.2,1.5-5.2
		C126.6,136.8,128.9,137.4,130,139.1z M35.8,138.2c1.5,1.5,1.6,3.9,0.1,5.4c-1.5,1.5-3.9,1.6-5.4,0.1c0,0-0.1-0.1-0.1-0.1
		c-1.5-1.5-1.4-3.9,0.1-5.4C32,136.8,34.3,136.8,35.8,138.2L35.8,138.2z M88.4,137.7c1.7,0,3,1.4,3,3s-1.4,3-3,3s-3-1.4-3-3
		S86.7,137.7,88.4,137.7z M73.2,137.8c1.6,0.4,2.6,2.1,2.1,3.7s-2.1,2.6-3.7,2.1l0,0c-1.6-0.4-2.6-2.1-2.1-3.7
		S71.6,137.3,73.2,137.8L73.2,137.8z M49,135.2c1.5,1.1,1.8,3.2,0.7,4.7c-1.1,1.5-3.2,1.8-4.7,0.7c0,0-0.1,0-0.1-0.1
		c-1.5-1.1-1.7-3.2-0.6-4.7C45.5,134.4,47.5,134.1,49,135.2z M117.3,136.1c0.7,1.7-0.1,3.7-1.7,4.4c-1.7,0.7-3.7-0.1-4.4-1.7
		c0,0,0,0,0,0c-0.7-1.7,0.1-3.7,1.8-4.4C114.7,133.6,116.6,134.4,117.3,136.1z M106.7,135.8c0.4,1.6-0.5,3.3-2.1,3.7
		s-3.3-0.5-3.7-2.1c-0.4-1.6,0.5-3.3,2.1-3.7S106.2,134.2,106.7,135.8L106.7,135.8L106.7,135.8z M58.6,133.9
		c1.4,0.8,1.9,2.7,1.1,4.1c-0.8,1.4-2.7,1.9-4.1,1.1l0,0c-1.4-0.8-1.9-2.7-1.1-4.1C55.3,133.6,57.1,133.1,58.6,133.9L58.6,133.9z
		 M80.9,130.5c1.4,0.2,2.5,1.5,2.3,2.9c-0.2,1.4-1.5,2.5-2.9,2.3c-1.4-0.2-2.5-1.5-2.3-2.9C78.2,131.3,79.5,130.3,80.9,130.5
		L80.9,130.5L80.9,130.5z M67.7,129c1.4,0.5,2.1,2,1.6,3.4c-0.5,1.4-2,2.1-3.4,1.6c0,0-0.1,0-0.1-0.1c-1.3-0.6-2-2.1-1.4-3.5
		C64.9,129.1,66.4,128.5,67.7,129z M97,130.8c0.2,1.4-0.7,2.8-2.2,3.1c-1.4,0.2-2.8-0.7-3.1-2.2c0-0.1,0-0.1,0-0.2
		c-0.2-1.5,0.9-2.8,2.3-2.9C95.5,128.5,96.7,129.5,97,130.8z M120.2,127.2c0.8,1.4,0.3,3.3-1.1,4.1c-1.4,0.8-3.3,0.3-4.1-1.1
		s-0.3-3.3,1.1-4.1C117.5,125.2,119.3,125.7,120.2,127.2z M45.4,126.4c1.2,1.2,1.2,3.1,0,4.3s-3.1,1.2-4.3,0c-1.2-1.2-1.2-3.1,0-4.3
		S44.3,125.3,45.4,126.4C45.4,126.4,45.4,126.4,45.4,126.4z M143.6,124.2c1.5,1.5,1.5,3.9,0.1,5.4c-1.5,1.5-3.9,1.5-5.4,0.1
		c0,0-0.1-0.1-0.1-0.1c-1.5-1.5-1.4-3.9,0.1-5.4C139.7,122.7,142.1,122.7,143.6,124.2z M35.6,125.2c1.2,1.4,0.9,3.5-0.5,4.7
		c-1.4,1.2-3.5,0.9-4.7-0.5c0,0,0-0.1-0.1-0.1c-1.1-1.5-0.8-3.6,0.6-4.7C32.4,123.5,34.4,123.8,35.6,125.2z M22.3,124.8
		c1.1,1.8,0.4,4.2-1.4,5.2c-1.8,1.1-4.2,0.4-5.2-1.4c0,0,0,0,0,0c-1-1.8-0.4-4.2,1.4-5.2C18.9,122.3,21.2,123,22.3,124.8z
		 M130.8,124.5c1.2,1.4,0.9,3.5-0.5,4.7s-3.5,0.9-4.7-0.5c0,0,0-0.1-0.1-0.1c-1.1-1.5-0.8-3.6,0.6-4.7
		C127.6,122.9,129.6,123.1,130.8,124.5z M55.4,124.1c1.2,0.8,1.5,2.5,0.6,3.7s-2.5,1.5-3.7,0.6c0,0-0.1-0.1-0.1-0.1
		c-1.1-0.9-1.3-2.6-0.4-3.7C52.6,123.5,54.2,123.2,55.4,124.1z M109.6,124.8c0.6,1.3,0,2.9-1.3,3.5c-1.3,0.6-2.9,0-3.5-1.3
		c0,0,0-0.1,0-0.1c-0.5-1.4,0.1-2.9,1.5-3.4C107.6,122.9,109.1,123.5,109.6,124.8L109.6,124.8z M131,115.3c1.2,1.2,1.2,3.1,0,4.3
		s-3.1,1.2-4.3,0s-1.2-3.1,0-4.3S129.8,114.1,131,115.3z M44.7,116.1c0.9,1.1,0.8,2.8-0.4,3.7c-1.1,0.9-2.8,0.8-3.7-0.4
		c0,0-0.1-0.1-0.1-0.1c-0.9-1.2-0.6-2.8,0.6-3.7C42.2,114.8,43.8,115,44.7,116.1z M34.7,115.8c0.8,1.4,0.3,3.3-1.1,4.1
		c-1.4,0.8-3.3,0.3-4.1-1.1s-0.3-3.3,1.1-4.1C32,113.8,33.9,114.3,34.7,115.8L34.7,115.8z M120.3,115.6c0.9,1.1,0.8,2.8-0.4,3.7
		s-2.8,0.8-3.7-0.4c0,0-0.1-0.1-0.1-0.1c-0.9-1.2-0.6-2.8,0.6-3.7C117.8,114.3,119.4,114.5,120.3,115.6z M25.2,112.1
		c0.7,1.7-0.1,3.7-1.7,4.4s-3.7-0.1-4.4-1.7c0,0,0,0,0,0c-0.7-1.7,0.1-3.7,1.8-4.4C22.5,109.6,24.5,110.4,25.2,112.1z M140.7,109.9
		c1.5,1.1,1.8,3.2,0.7,4.7s-3.2,1.8-4.7,0.7c-1.5-1.1-1.7-3.2-0.6-4.7C137.2,109.1,139.3,108.8,140.7,109.9L140.7,109.9z
		 M152.8,106.2c1.8,1,2.5,3.4,1.4,5.2c-1,1.8-3.4,2.5-5.2,1.4c0,0,0,0,0,0c-1.8-1.1-2.4-3.4-1.4-5.2
		C148.7,105.8,151,105.2,152.8,106.2z M12.6,108.3c0.6,2-0.6,4.1-2.6,4.7c-2,0.6-4.1-0.6-4.7-2.6c0,0,0,0,0-0.1
		c-0.5-2,0.7-4.1,2.7-4.6C10,105.1,12.1,106.3,12.6,108.3z M36.5,105.7c0.6,1.3,0,2.9-1.3,3.5s-2.9,0-3.5-1.3c0,0,0-0.1-0.1-0.1
		c-0.5-1.4,0.1-2.9,1.5-3.4C34.4,103.8,35.9,104.4,36.5,105.7z M128.2,104c1.2,0.8,1.5,2.5,0.6,3.7c-0.8,1.2-2.5,1.5-3.7,0.6
		c0,0-0.1-0.1-0.1-0.1c-1.1-0.9-1.3-2.6-0.4-3.7C125.5,103.4,127.1,103.2,128.2,104z M138.3,101.1c1.4,0.8,1.9,2.7,1.1,4.1
		c-0.8,1.4-2.7,1.9-4.1,1.1s-1.9-2.7-1.1-4.1C135,100.7,136.9,100.2,138.3,101.1L138.3,101.1z M27.1,102.7c0.4,1.6-0.5,3.3-2.1,3.7
		c-1.6,0.4-3.3-0.5-3.7-2.1c-0.4-1.6,0.5-3.3,2.1-3.7C25,100.1,26.6,101.1,27.1,102.7L27.1,102.7z M18.6,96.7c0.3,1.8-1,3.5-2.8,3.8
		s-3.5-1-3.8-2.8c-0.2-1.8,1.1-3.5,2.9-3.7C16.7,93.7,18.3,95,18.6,96.7L18.6,96.7z M146.6,93.2c1.7,0.7,2.6,2.6,1.9,4.3
		c-0.7,1.7-2.6,2.6-4.3,1.9c0,0,0,0,0,0c-1.7-0.7-2.5-2.7-1.8-4.4C143,93.3,144.9,92.5,146.6,93.2z M31.3,93.5
		c0.2,1.4-0.7,2.8-2.2,3.1c-1.4,0.2-2.8-0.7-3.1-2.2c0-0.1,0-0.1,0-0.2c-0.2-1.5,0.9-2.8,2.3-2.9C29.8,91.2,31,92.2,31.3,93.5z
		 M132.9,90.7c1.4,0.5,2.1,2,1.6,3.4s-2,2.1-3.4,1.6c-0.1,0-0.1,0-0.1-0.1c-1.3-0.6-1.9-2.2-1.4-3.5
		C130.1,90.9,131.5,90.2,132.9,90.7z M152.5,89.2c0.5-2,2.6-3.3,4.6-2.7c2,0.5,3.3,2.6,2.7,4.6c0,0,0,0,0,0.1
		c-0.6,2-2.7,3.2-4.7,2.6C153.1,93.2,152,91.2,152.5,89.2z M3.8,86.1c2.1,0,3.8,1.6,3.9,3.7S6.1,93.7,4,93.7c-0.1,0-0.1,0-0.2,0
		c-2.1,0-3.8-1.8-3.7-3.9C0.1,87.8,1.8,86.1,3.8,86.1L3.8,86.1z M141.7,85.4c1.6,0.4,2.6,2.1,2.1,3.7c-0.4,1.6-2.1,2.6-3.7,2.1
		s-2.6-2.1-2.1-3.7S140.1,85,141.7,85.4z M20,85.1c1.7,0,3,1.4,3,3s-1.4,3-3,3l0,0c-1.7,0-3-1.4-3-3S18.4,85.1,20,85.1z M13.1,76.7
		c1.8,0.2,3.1,1.8,2.9,3.6s-1.8,3.1-3.6,2.9c0,0-0.1,0-0.1,0c-1.8-0.2-3.1-1.9-2.8-3.7C9.7,77.8,11.3,76.5,13.1,76.7z M26.9,77.7
		c1.4,0.2,2.5,1.5,2.3,2.9C29,82,27.7,83,26.3,82.9l0,0c-1.4-0.2-2.5-1.5-2.3-2.9C24.2,78.5,25.5,77.5,26.9,77.7z M147.7,75.7
		c1.8,0.2,3.1,1.8,2.9,3.6c-0.2,1.8-1.8,3.1-3.6,2.9c0,0-0.1,0-0.1,0c-1.8-0.2-3.1-1.9-2.8-3.7C144.3,76.8,145.9,75.5,147.7,75.7z
		 M133.7,76.8c1.4,0.2,2.5,1.5,2.3,2.9c-0.2,1.4-1.5,2.5-2.9,2.3c0,0,0,0,0,0c-1.4-0.2-2.5-1.5-2.3-2.9
		C131,77.7,132.3,76.7,133.7,76.8z M141,69.4c1.7,0,3,1.4,3,3s-1.4,3-3,3c0,0,0,0,0,0c-1.7,0-3-1.4-3-3
		C138,70.7,139.3,69.4,141,69.4z M20.8,69.3c1.6,0.4,2.6,2.1,2.1,3.7c-0.4,1.6-2.1,2.6-3.7,2.1c-1.6-0.4-2.6-2.1-2.1-3.7
		C17.6,69.8,19.2,68.8,20.8,69.3L20.8,69.3z M156.2,66.3c2.1,0,3.8,1.6,3.9,3.7c0,2.1-1.6,3.8-3.7,3.9c0,0-0.1,0-0.1,0
		c-2.1,0-3.8-1.7-3.8-3.8C152.4,68,154.1,66.3,156.2,66.3L156.2,66.3z M0.2,68.9c0.5-2,2.6-3.3,4.6-2.7s3.3,2.6,2.7,4.6
		c0,0,0,0,0,0.1c-0.6,2-2.7,3.2-4.7,2.6C0.8,72.9-0.4,70.9,0.2,68.9z M29.4,63.8c1.4,0.5,2.1,2,1.5,3.4c-0.5,1.4-2,2.1-3.4,1.5
		c0,0-0.1,0-0.1,0c-1.3-0.6-2-2.1-1.4-3.5C26.6,63.9,28.1,63.3,29.4,63.8L29.4,63.8z M134.3,65.1c0.2,1.4-0.7,2.8-2.2,3
		s-2.8-0.7-3-2.2c0,0,0-0.1,0-0.1c-0.2-1.5,0.9-2.8,2.3-2.9C132.8,62.8,134.1,63.7,134.3,65.1z M16.3,59.3c1.7,0.7,2.6,2.6,1.9,4.3
		c-0.7,1.7-2.6,2.6-4.3,1.9c0,0,0,0,0,0c-1.7-0.7-2.5-2.7-1.8-4.4C12.7,59.4,14.6,58.6,16.3,59.3z M148.4,61c0.3,1.8-1,3.5-2.8,3.8
		c-1.8,0.3-3.5-1-3.8-2.8c0,0,0-0.1,0-0.1c-0.2-1.8,1.1-3.5,2.9-3.7C146.5,57.9,148.1,59.2,148.4,61L148.4,61z M139.8,56.2
		c0.4,1.6-0.5,3.3-2.1,3.7c-1.6,0.4-3.3-0.5-3.7-2.1l0,0c-0.4-1.6,0.5-3.3,2.1-3.7C137.7,53.7,139.4,54.6,139.8,56.2z M25.7,54.2
		c1.4,0.8,1.9,2.7,1.1,4.1c-0.8,1.4-2.7,1.9-4.1,1.1s-1.9-2.7-1.1-4.1C22.4,53.9,24.3,53.4,25.7,54.2L25.7,54.2z M35.3,51.2
		c1.2,0.8,1.5,2.5,0.6,3.7s-2.5,1.5-3.7,0.6c0,0-0.1-0.1-0.1-0.1c-1.1-0.9-1.3-2.6-0.4-3.7C32.6,50.6,34.1,50.4,35.3,51.2z
		 M128.7,51.6c0.6,1.3,0,2.9-1.3,3.5c-1.3,0.6-2.9,0-3.5-1.3c0,0,0-0.1-0.1-0.1c-0.5-1.4,0.1-2.9,1.5-3.4
		C126.6,49.7,128.1,50.3,128.7,51.6z M154.7,49.7c0.6,2-0.6,4.1-2.6,4.7s-4.1-0.6-4.7-2.6c0,0,0,0,0-0.1c-0.5-2,0.7-4.1,2.7-4.6
		C152.1,46.5,154.2,47.7,154.7,49.7z M11,47.2c1.8,1,2.5,3.4,1.5,5.2s-3.4,2.5-5.2,1.5c0,0-0.1,0-0.1,0c-1.8-1.1-2.4-3.4-1.4-5.2
		C6.8,46.8,9.2,46.1,11,47.2L11,47.2z M23.7,43.4c1.5,1.1,1.8,3.2,0.7,4.7c-1.1,1.5-3.2,1.8-4.7,0.7c0,0-0.1,0-0.1-0.1
		c-1.5-1.1-1.7-3.2-0.6-4.7C20.2,42.6,22.2,42.3,23.7,43.4z M141.3,43.9c0.7,1.7,0,3.7-1.7,4.4s-3.7,0-4.4-1.7c0,0,0,0,0-0.1
		c-0.7-1.7,0.1-3.7,1.8-4.4C138.7,41.5,140.6,42.3,141.3,43.9z M131.6,41.7c0.8,1.4,0.3,3.3-1.1,4.1c-1.4,0.8-3.3,0.3-4.1-1.1l0,0
		c-0.8-1.4-0.3-3.3,1.1-4.1C128.9,39.8,130.7,40.3,131.6,41.7L131.6,41.7z M34.3,40.9c1.2,1.2,1.2,3.1,0,4.3s-3.1,1.2-4.3,0
		s-1.2-3.1,0-4.3S33.1,39.7,34.3,40.9z M44.2,40.6c0.9,1.1,0.8,2.8-0.4,3.7c-1.1,0.9-2.8,0.8-3.7-0.4c0,0-0.1-0.1-0.1-0.1
		c-0.9-1.2-0.6-2.8,0.6-3.7C41.7,39.3,43.3,39.5,44.2,40.6z M119.8,40c0.9,1.1,0.8,2.8-0.4,3.7s-2.8,0.8-3.7-0.4
		c0,0-0.1-0.1-0.1-0.1c-0.9-1.2-0.6-2.8,0.6-3.7C117.3,38.7,118.9,38.9,119.8,40z M144.3,31.4c1.1,1.8,0.4,4.2-1.4,5.2
		c-1.8,1.1-4.2,0.4-5.2-1.4c0,0,0,0,0,0c-1-1.8-0.4-4.2,1.4-5.2C141,29,143.3,29.6,144.3,31.4z M21.8,30.4c1.5,1.5,1.5,3.9,0.1,5.4
		c-1.5,1.5-3.9,1.5-5.4,0.1c0,0-0.1-0.1-0.1-0.1c-1.5-1.5-1.4-3.9,0.1-5.4C18,29,20.3,29,21.8,30.4z M55.6,32.6
		c0.6,1.3,0,2.9-1.3,3.5c-1.3,0.6-2.9,0-3.5-1.3c0,0,0-0.1-0.1-0.1c-0.5-1.4,0.1-2.9,1.5-3.4C53.5,30.7,55,31.3,55.6,32.6z
		 M108.1,31.1c1.2,0.9,1.5,2.5,0.6,3.7c-0.9,1.2-2.5,1.5-3.7,0.6c0,0-0.1-0.1-0.1-0.1c-1.1-0.9-1.3-2.6-0.4-3.7
		C105.4,30.5,107,30.3,108.1,31.1z M34.9,30c1.2,1.4,0.9,3.5-0.5,4.7c-1.4,1.2-3.5,0.9-4.7-0.5c0,0,0-0.1-0.1-0.1
		c-1.1-1.5-0.8-3.6,0.6-4.7C31.7,28.3,33.8,28.6,34.9,30z M119.8,29.8c1.2,1.2,1.2,3.1,0,4.3s-3.1,1.2-4.3,0s-1.2-3.1,0-4.3
		S118.7,28.6,119.8,29.8z M46.1,30.3c0.8,1.4,0.3,3.3-1.1,4.1c-1.4,0.8-3.3,0.3-4.1-1.1C40,31.9,40.5,30,42,29.2
		C43.4,28.4,45.2,28.9,46.1,30.3L46.1,30.3L46.1,30.3z M130.1,29.3c1.2,1.4,0.9,3.5-0.5,4.7c-1.4,1.2-3.5,0.9-4.7-0.5
		c0,0,0-0.1-0.1-0.1c-1.1-1.5-0.8-3.6,0.6-4.7C126.9,27.7,129,27.9,130.1,29.3z M68.6,27.8c0.2,1.4-0.7,2.8-2.2,3
		c-1.4,0.2-2.8-0.7-3-2.2c0,0,0-0.1,0-0.1c-0.2-1.5,0.9-2.8,2.3-2.9C67.1,25.5,68.4,26.4,68.6,27.8z M94.6,25.5
		c1.4,0.5,2.1,2,1.5,3.4s-2,2.1-3.4,1.5c0,0-0.1,0-0.1,0c-1.3-0.6-2-2.1-1.4-3.5C91.8,25.7,93.3,25,94.6,25.5z M80.1,23.6
		c1.4,0.2,2.5,1.5,2.3,2.9c-0.2,1.4-1.5,2.5-2.9,2.3l0,0c-1.4-0.2-2.5-1.5-2.3-2.9C77.4,24.5,78.7,23.5,80.1,23.6L80.1,23.6z
		 M105.4,21.3c1.4,0.8,1.9,2.7,1.1,4.1c-0.8,1.4-2.7,1.9-4.1,1.1l0,0c-1.4-0.8-1.9-2.7-1.1-4.1C102.2,21,104,20.5,105.4,21.3z
		 M60.2,23.1c0.4,1.6-0.5,3.3-2.1,3.7c-1.6,0.4-3.3-0.5-3.7-2.1l0,0c-0.4-1.6,0.5-3.3,2.1-3.7C58.1,20.5,59.8,21.5,60.2,23.1
		L60.2,23.1z M49.2,19.9c0.7,1.7-0.1,3.7-1.7,4.4c-1.7,0.7-3.7-0.1-4.4-1.7c0,0,0,0,0,0c-0.7-1.7,0.1-3.7,1.8-4.4
		C46.5,17.5,48.5,18.3,49.2,19.9z M115.4,18.1c1.5,1.1,1.8,3.2,0.7,4.7c-1.1,1.5-3.2,1.8-4.7,0.7l0,0c-1.5-1.1-1.7-3.2-0.6-4.7
		C111.9,17.3,114,17,115.4,18.1L115.4,18.1z M129.6,16.4c1.5,1.5,1.5,3.9,0.1,5.4c-1.5,1.5-3.9,1.5-5.4,0.1c0,0-0.1-0.1-0.1-0.1
		c-1.5-1.5-1.4-3.9,0.1-5.4C125.7,15,128.1,15,129.6,16.4z M89.3,16.9c1.6,0.4,2.6,2.1,2.1,3.7c-0.4,1.6-2.1,2.6-3.7,2.1
		s-2.6-2.1-2.1-3.7C86.1,17.4,87.7,16.5,89.3,16.9z M72.6,16.8c1.7,0,3,1.4,3,3s-1.4,3-3,3l0,0c-1.7,0-3-1.4-3-3S71,16.8,72.6,16.8
		L72.6,16.8z M36.6,17.1c1.1,1.8,0.4,4.2-1.4,5.2s-4.2,0.4-5.2-1.4s-0.4-4.2,1.4-5.2C33.2,14.6,35.6,15.2,36.6,17.1z M65.6,13.9
		c0.3,1.8-1,3.5-2.8,3.8s-3.5-1-3.8-2.8l0,0c-0.2-1.8,1.1-3.5,2.9-3.7C63.7,10.9,65.3,12.2,65.6,13.9L65.6,13.9z M98.4,11.1
		c1.7,0.7,2.6,2.6,1.9,4.3c-0.7,1.7-2.6,2.6-4.3,1.9c0,0,0,0,0,0c-1.7-0.7-2.5-2.7-1.8-4.4C94.8,11.2,96.7,10.4,98.4,11.1z
		 M80.1,8.7c1.8,0.2,3.1,1.8,3,3.6c-0.2,1.8-1.8,3.1-3.6,3c-0.1,0-0.1,0-0.2,0c-1.8-0.3-3.1-1.9-2.8-3.7C76.8,9.7,78.4,8.5,80.1,8.7
		z M111.4,5.8c1.8,1,2.5,3.3,1.5,5.2s-3.3,2.5-5.2,1.5c0,0-0.1,0-0.1-0.1c-1.8-1.1-2.4-3.4-1.3-5.2C107.4,5.4,109.6,4.8,111.4,5.8z
		 M54.4,8c0.6,2-0.6,4.1-2.6,4.7c-2,0.6-4.1-0.6-4.7-2.6c0,0,0-0.1,0-0.1c-0.5-2,0.7-4.1,2.7-4.6C51.8,4.8,53.8,6,54.4,8L54.4,8z
		 M91.1,0.2c2,0.5,3.3,2.6,2.8,4.6s-2.6,3.3-4.6,2.8c0,0-0.1,0-0.1,0c-2-0.6-3.2-2.7-2.6-4.7C87.1,0.8,89.1-0.4,91.1,0.2L91.1,0.2z
		 M70.1,0c2.1,0,3.8,1.6,3.9,3.7s-1.6,3.8-3.7,3.9c0,0-0.1,0-0.1,0c-2.1,0-3.8-1.8-3.7-3.9C66.4,1.7,68,0,70.1,0z"/>
</g>
<g>
	
		<linearGradient id="b_00000073686175602854434460000012223650724867906465_" gradientUnits="userSpaceOnUse" x1="-223.5939" y1="474.0312" x2="-223.0939" y2="474.5312" gradientTransform="matrix(160.0204 0 0 -160.001 35779.6406 76005.4766)">
		<stop  offset="0" style="stop-color:#EE0000"/>
		<stop  offset="1" style="stop-color:#EE00E1;stop-opacity:0"/>
	</linearGradient>
	
		<path id="b_00000076596128729262492000000003994362391887154338_" style="fill:url(#b_00000073686175602854434460000012223650724867906465_);" d="
		M89.9,152.4c2.1,0,3.8,1.6,3.9,3.7c0,2.1-1.6,3.8-3.7,3.9c0,0-0.1,0-0.1,0c-2.1,0-3.8-1.8-3.7-3.9
		C86.2,154.1,87.8,152.4,89.9,152.4z M66.2,155.2c0.5-2,2.6-3.3,4.7-2.7c2,0.5,3.3,2.6,2.7,4.7c0,0,0,0,0,0c-0.6,2-2.7,3.2-4.7,2.6
		C66.8,159.2,65.7,157.2,66.2,155.2L66.2,155.2z M113,150c0.6,2-0.6,4.1-2.6,4.7c-2,0.6-4.1-0.6-4.7-2.6c0,0,0,0,0-0.1
		c-0.5-2,0.7-4.1,2.7-4.6C110.4,146.9,112.4,148,113,150z M52.4,147.6c1.8,1,2.5,3.3,1.5,5.2s-3.3,2.5-5.2,1.5c0,0-0.1,0-0.1-0.1
		c-1.8-1.1-2.4-3.4-1.3-5.2C48.3,147.2,50.6,146.6,52.4,147.6z M81.2,143.3c1.8,0.2,3.1,1.8,2.9,3.6c-0.2,1.8-1.8,3.1-3.6,2.9
		c0,0-0.1,0-0.1,0c-1.8-0.3-3.1-1.9-2.8-3.7C77.8,144.3,79.4,143.1,81.2,143.3z M64.5,141.4c1.7,0.7,2.6,2.6,1.9,4.3
		c-0.7,1.7-2.6,2.6-4.3,1.9c0,0,0,0,0,0c-1.7-0.7-2.5-2.7-1.8-4.4C60.9,141.5,62.8,140.7,64.5,141.4z M101.4,143.7
		c0.3,1.8-1,3.5-2.8,3.8c-1.8,0.3-3.5-1-3.8-2.8c0,0,0-0.1,0-0.1c-0.2-1.8,1.1-3.5,2.9-3.7C99.5,140.7,101.1,142,101.4,143.7z
		 M130,139.1c1.1,1.8,0.5,4.1-1.3,5.2c-1.8,1.1-4.1,0.5-5.2-1.3c0,0,0-0.1-0.1-0.1c-1-1.8-0.4-4.2,1.5-5.2
		C126.6,136.8,128.9,137.4,130,139.1z M35.8,138.2c1.5,1.5,1.6,3.9,0.1,5.4c-1.5,1.5-3.9,1.6-5.4,0.1c0,0-0.1-0.1-0.1-0.1
		c-1.5-1.5-1.4-3.9,0.1-5.4C32,136.8,34.3,136.8,35.8,138.2L35.8,138.2z M88.4,137.7c1.7,0,3,1.4,3,3s-1.4,3-3,3s-3-1.4-3-3
		S86.7,137.7,88.4,137.7z M73.2,137.8c1.6,0.4,2.6,2.1,2.1,3.7s-2.1,2.6-3.7,2.1l0,0c-1.6-0.4-2.6-2.1-2.1-3.7
		S71.6,137.3,73.2,137.8L73.2,137.8z M49,135.2c1.5,1.1,1.8,3.2,0.7,4.7c-1.1,1.5-3.2,1.8-4.7,0.7c0,0-0.1,0-0.1-0.1
		c-1.5-1.1-1.7-3.2-0.6-4.7C45.5,134.4,47.5,134.1,49,135.2z M117.3,136.1c0.7,1.7-0.1,3.7-1.7,4.4c-1.7,0.7-3.7-0.1-4.4-1.7
		c0,0,0,0,0,0c-0.7-1.7,0.1-3.7,1.8-4.4C114.7,133.6,116.6,134.4,117.3,136.1z M106.7,135.8c0.4,1.6-0.5,3.3-2.1,3.7
		s-3.3-0.5-3.7-2.1c-0.4-1.6,0.5-3.3,2.1-3.7S106.2,134.2,106.7,135.8L106.7,135.8L106.7,135.8z M58.6,133.9
		c1.4,0.8,1.9,2.7,1.1,4.1c-0.8,1.4-2.7,1.9-4.1,1.1l0,0c-1.4-0.8-1.9-2.7-1.1-4.1C55.3,133.6,57.1,133.1,58.6,133.9L58.6,133.9z
		 M80.9,130.5c1.4,0.2,2.5,1.5,2.3,2.9c-0.2,1.4-1.5,2.5-2.9,2.3c-1.4-0.2-2.5-1.5-2.3-2.9C78.2,131.3,79.5,130.3,80.9,130.5
		L80.9,130.5L80.9,130.5z M67.7,129c1.4,0.5,2.1,2,1.6,3.4c-0.5,1.4-2,2.1-3.4,1.6c0,0-0.1,0-0.1-0.1c-1.3-0.6-2-2.1-1.4-3.5
		C64.9,129.1,66.4,128.5,67.7,129z M97,130.8c0.2,1.4-0.7,2.8-2.2,3.1c-1.4,0.2-2.8-0.7-3.1-2.2c0-0.1,0-0.1,0-0.2
		c-0.2-1.5,0.9-2.8,2.3-2.9C95.5,128.5,96.7,129.5,97,130.8z M120.2,127.2c0.8,1.4,0.3,3.3-1.1,4.1c-1.4,0.8-3.3,0.3-4.1-1.1
		s-0.3-3.3,1.1-4.1C117.5,125.2,119.3,125.7,120.2,127.2z M45.4,126.4c1.2,1.2,1.2,3.1,0,4.3s-3.1,1.2-4.3,0c-1.2-1.2-1.2-3.1,0-4.3
		S44.3,125.3,45.4,126.4C45.4,126.4,45.4,126.4,45.4,126.4z M143.6,124.2c1.5,1.5,1.5,3.9,0.1,5.4c-1.5,1.5-3.9,1.5-5.4,0.1
		c0,0-0.1-0.1-0.1-0.1c-1.5-1.5-1.4-3.9,0.1-5.4C139.7,122.7,142.1,122.7,143.6,124.2z M35.6,125.2c1.2,1.4,0.9,3.5-0.5,4.7
		c-1.4,1.2-3.5,0.9-4.7-0.5c0,0,0-0.1-0.1-0.1c-1.1-1.5-0.8-3.6,0.6-4.7C32.4,123.5,34.4,123.8,35.6,125.2z M22.3,124.8
		c1.1,1.8,0.4,4.2-1.4,5.2c-1.8,1.1-4.2,0.4-5.2-1.4c0,0,0,0,0,0c-1-1.8-0.4-4.2,1.4-5.2C18.9,122.3,21.2,123,22.3,124.8z
		 M130.8,124.5c1.2,1.4,0.9,3.5-0.5,4.7s-3.5,0.9-4.7-0.5c0,0,0-0.1-0.1-0.1c-1.1-1.5-0.8-3.6,0.6-4.7
		C127.6,122.9,129.6,123.1,130.8,124.5z M55.4,124.1c1.2,0.8,1.5,2.5,0.6,3.7s-2.5,1.5-3.7,0.6c0,0-0.1-0.1-0.1-0.1
		c-1.1-0.9-1.3-2.6-0.4-3.7C52.6,123.5,54.2,123.2,55.4,124.1z M109.6,124.8c0.6,1.3,0,2.9-1.3,3.5c-1.3,0.6-2.9,0-3.5-1.3
		c0,0,0-0.1,0-0.1c-0.5-1.4,0.1-2.9,1.5-3.4C107.6,122.9,109.1,123.5,109.6,124.8L109.6,124.8z M131,115.3c1.2,1.2,1.2,3.1,0,4.3
		s-3.1,1.2-4.3,0s-1.2-3.1,0-4.3S129.8,114.1,131,115.3z M44.7,116.1c0.9,1.1,0.8,2.8-0.4,3.7c-1.1,0.9-2.8,0.8-3.7-0.4
		c0,0-0.1-0.1-0.1-0.1c-0.9-1.2-0.6-2.8,0.6-3.7C42.2,114.8,43.8,115,44.7,116.1z M34.7,115.8c0.8,1.4,0.3,3.3-1.1,4.1
		c-1.4,0.8-3.3,0.3-4.1-1.1s-0.3-3.3,1.1-4.1C32,113.8,33.9,114.3,34.7,115.8L34.7,115.8z M120.3,115.6c0.9,1.1,0.8,2.8-0.4,3.7
		s-2.8,0.8-3.7-0.4c0,0-0.1-0.1-0.1-0.1c-0.9-1.2-0.6-2.8,0.6-3.7C117.8,114.3,119.4,114.5,120.3,115.6z M25.2,112.1
		c0.7,1.7-0.1,3.7-1.7,4.4s-3.7-0.1-4.4-1.7c0,0,0,0,0,0c-0.7-1.7,0.1-3.7,1.8-4.4C22.5,109.6,24.5,110.4,25.2,112.1z M140.7,109.9
		c1.5,1.1,1.8,3.2,0.7,4.7s-3.2,1.8-4.7,0.7c-1.5-1.1-1.7-3.2-0.6-4.7C137.2,109.1,139.3,108.8,140.7,109.9L140.7,109.9z
		 M152.8,106.2c1.8,1,2.5,3.4,1.4,5.2c-1,1.8-3.4,2.5-5.2,1.4c0,0,0,0,0,0c-1.8-1.1-2.4-3.4-1.4-5.2
		C148.7,105.8,151,105.2,152.8,106.2z M12.6,108.3c0.6,2-0.6,4.1-2.6,4.7c-2,0.6-4.1-0.6-4.7-2.6c0,0,0,0,0-0.1
		c-0.5-2,0.7-4.1,2.7-4.6C10,105.1,12.1,106.3,12.6,108.3z M36.5,105.7c0.6,1.3,0,2.9-1.3,3.5s-2.9,0-3.5-1.3c0,0,0-0.1-0.1-0.1
		c-0.5-1.4,0.1-2.9,1.5-3.4C34.4,103.8,35.9,104.4,36.5,105.7z M128.2,104c1.2,0.8,1.5,2.5,0.6,3.7c-0.8,1.2-2.5,1.5-3.7,0.6
		c0,0-0.1-0.1-0.1-0.1c-1.1-0.9-1.3-2.6-0.4-3.7C125.5,103.4,127.1,103.2,128.2,104z M138.3,101.1c1.4,0.8,1.9,2.7,1.1,4.1
		c-0.8,1.4-2.7,1.9-4.1,1.1s-1.9-2.7-1.1-4.1C135,100.7,136.9,100.2,138.3,101.1L138.3,101.1z M27.1,102.7c0.4,1.6-0.5,3.3-2.1,3.7
		c-1.6,0.4-3.3-0.5-3.7-2.1c-0.4-1.6,0.5-3.3,2.1-3.7C25,100.1,26.6,101.1,27.1,102.7L27.1,102.7z M18.6,96.7c0.3,1.8-1,3.5-2.8,3.8
		s-3.5-1-3.8-2.8c-0.2-1.8,1.1-3.5,2.9-3.7C16.7,93.7,18.3,95,18.6,96.7L18.6,96.7z M146.6,93.2c1.7,0.7,2.6,2.6,1.9,4.3
		c-0.7,1.7-2.6,2.6-4.3,1.9c0,0,0,0,0,0c-1.7-0.7-2.5-2.7-1.8-4.4C143,93.3,144.9,92.5,146.6,93.2z M31.3,93.5
		c0.2,1.4-0.7,2.8-2.2,3.1c-1.4,0.2-2.8-0.7-3.1-2.2c0-0.1,0-0.1,0-0.2c-0.2-1.5,0.9-2.8,2.3-2.9C29.8,91.2,31,92.2,31.3,93.5z
		 M132.9,90.7c1.4,0.5,2.1,2,1.6,3.4s-2,2.1-3.4,1.6c-0.1,0-0.1,0-0.1-0.1c-1.3-0.6-1.9-2.2-1.4-3.5
		C130.1,90.9,131.5,90.2,132.9,90.7z M152.5,89.2c0.5-2,2.6-3.3,4.6-2.7c2,0.5,3.3,2.6,2.7,4.6c0,0,0,0,0,0.1
		c-0.6,2-2.7,3.2-4.7,2.6C153.1,93.2,152,91.2,152.5,89.2z M3.8,86.1c2.1,0,3.8,1.6,3.9,3.7S6.1,93.7,4,93.7c-0.1,0-0.1,0-0.2,0
		c-2.1,0-3.8-1.8-3.7-3.9C0.1,87.8,1.8,86.1,3.8,86.1L3.8,86.1z M141.7,85.4c1.6,0.4,2.6,2.1,2.1,3.7c-0.4,1.6-2.1,2.6-3.7,2.1
		s-2.6-2.1-2.1-3.7S140.1,85,141.7,85.4z M20,85.1c1.7,0,3,1.4,3,3s-1.4,3-3,3l0,0c-1.7,0-3-1.4-3-3S18.4,85.1,20,85.1z M13.1,76.7
		c1.8,0.2,3.1,1.8,2.9,3.6s-1.8,3.1-3.6,2.9c0,0-0.1,0-0.1,0c-1.8-0.2-3.1-1.9-2.8-3.7C9.7,77.8,11.3,76.5,13.1,76.7z M26.9,77.7
		c1.4,0.2,2.5,1.5,2.3,2.9C29,82,27.7,83,26.3,82.9l0,0c-1.4-0.2-2.5-1.5-2.3-2.9C24.2,78.5,25.5,77.5,26.9,77.7z M147.7,75.7
		c1.8,0.2,3.1,1.8,2.9,3.6c-0.2,1.8-1.8,3.1-3.6,2.9c0,0-0.1,0-0.1,0c-1.8-0.2-3.1-1.9-2.8-3.7C144.3,76.8,145.9,75.5,147.7,75.7z
		 M133.7,76.8c1.4,0.2,2.5,1.5,2.3,2.9c-0.2,1.4-1.5,2.5-2.9,2.3c0,0,0,0,0,0c-1.4-0.2-2.5-1.5-2.3-2.9
		C131,77.7,132.3,76.7,133.7,76.8z M141,69.4c1.7,0,3,1.4,3,3s-1.4,3-3,3c0,0,0,0,0,0c-1.7,0-3-1.4-3-3
		C138,70.7,139.3,69.4,141,69.4z M20.8,69.3c1.6,0.4,2.6,2.1,2.1,3.7c-0.4,1.6-2.1,2.6-3.7,2.1c-1.6-0.4-2.6-2.1-2.1-3.7
		C17.6,69.8,19.2,68.8,20.8,69.3L20.8,69.3z M156.2,66.3c2.1,0,3.8,1.6,3.9,3.7c0,2.1-1.6,3.8-3.7,3.9c0,0-0.1,0-0.1,0
		c-2.1,0-3.8-1.7-3.8-3.8C152.4,68,154.1,66.3,156.2,66.3L156.2,66.3z M0.2,68.9c0.5-2,2.6-3.3,4.6-2.7s3.3,2.6,2.7,4.6
		c0,0,0,0,0,0.1c-0.6,2-2.7,3.2-4.7,2.6C0.8,72.9-0.4,70.9,0.2,68.9z M29.4,63.8c1.4,0.5,2.1,2,1.5,3.4c-0.5,1.4-2,2.1-3.4,1.5
		c0,0-0.1,0-0.1,0c-1.3-0.6-2-2.1-1.4-3.5C26.6,63.9,28.1,63.3,29.4,63.8L29.4,63.8z M134.3,65.1c0.2,1.4-0.7,2.8-2.2,3
		s-2.8-0.7-3-2.2c0,0,0-0.1,0-0.1c-0.2-1.5,0.9-2.8,2.3-2.9C132.8,62.8,134.1,63.7,134.3,65.1z M16.3,59.3c1.7,0.7,2.6,2.6,1.9,4.3
		c-0.7,1.7-2.6,2.6-4.3,1.9c0,0,0,0,0,0c-1.7-0.7-2.5-2.7-1.8-4.4C12.7,59.4,14.6,58.6,16.3,59.3z M148.4,61c0.3,1.8-1,3.5-2.8,3.8
		c-1.8,0.3-3.5-1-3.8-2.8c0,0,0-0.1,0-0.1c-0.2-1.8,1.1-3.5,2.9-3.7C146.5,57.9,148.1,59.2,148.4,61L148.4,61z M139.8,56.2
		c0.4,1.6-0.5,3.3-2.1,3.7c-1.6,0.4-3.3-0.5-3.7-2.1l0,0c-0.4-1.6,0.5-3.3,2.1-3.7C137.7,53.7,139.4,54.6,139.8,56.2z M25.7,54.2
		c1.4,0.8,1.9,2.7,1.1,4.1c-0.8,1.4-2.7,1.9-4.1,1.1s-1.9-2.7-1.1-4.1C22.4,53.9,24.3,53.4,25.7,54.2L25.7,54.2z M35.3,51.2
		c1.2,0.8,1.5,2.5,0.6,3.7s-2.5,1.5-3.7,0.6c0,0-0.1-0.1-0.1-0.1c-1.1-0.9-1.3-2.6-0.4-3.7C32.6,50.6,34.1,50.4,35.3,51.2z
		 M128.7,51.6c0.6,1.3,0,2.9-1.3,3.5c-1.3,0.6-2.9,0-3.5-1.3c0,0,0-0.1-0.1-0.1c-0.5-1.4,0.1-2.9,1.5-3.4
		C126.6,49.7,128.1,50.3,128.7,51.6z M154.7,49.7c0.6,2-0.6,4.1-2.6,4.7s-4.1-0.6-4.7-2.6c0,0,0,0,0-0.1c-0.5-2,0.7-4.1,2.7-4.6
		C152.1,46.5,154.2,47.7,154.7,49.7z M11,47.2c1.8,1,2.5,3.4,1.5,5.2s-3.4,2.5-5.2,1.5c0,0-0.1,0-0.1,0c-1.8-1.1-2.4-3.4-1.4-5.2
		C6.8,46.8,9.2,46.1,11,47.2L11,47.2z M23.7,43.4c1.5,1.1,1.8,3.2,0.7,4.7c-1.1,1.5-3.2,1.8-4.7,0.7c0,0-0.1,0-0.1-0.1
		c-1.5-1.1-1.7-3.2-0.6-4.7C20.2,42.6,22.2,42.3,23.7,43.4z M141.3,43.9c0.7,1.7,0,3.7-1.7,4.4s-3.7,0-4.4-1.7c0,0,0,0,0-0.1
		c-0.7-1.7,0.1-3.7,1.8-4.4C138.7,41.5,140.6,42.3,141.3,43.9z M131.6,41.7c0.8,1.4,0.3,3.3-1.1,4.1c-1.4,0.8-3.3,0.3-4.1-1.1l0,0
		c-0.8-1.4-0.3-3.3,1.1-4.1C128.9,39.8,130.7,40.3,131.6,41.7L131.6,41.7z M34.3,40.9c1.2,1.2,1.2,3.1,0,4.3s-3.1,1.2-4.3,0
		s-1.2-3.1,0-4.3S33.1,39.7,34.3,40.9z M44.2,40.6c0.9,1.1,0.8,2.8-0.4,3.7c-1.1,0.9-2.8,0.8-3.7-0.4c0,0-0.1-0.1-0.1-0.1
		c-0.9-1.2-0.6-2.8,0.6-3.7C41.7,39.3,43.3,39.5,44.2,40.6z M119.8,40c0.9,1.1,0.8,2.8-0.4,3.7s-2.8,0.8-3.7-0.4
		c0,0-0.1-0.1-0.1-0.1c-0.9-1.2-0.6-2.8,0.6-3.7C117.3,38.7,118.9,38.9,119.8,40z M144.3,31.4c1.1,1.8,0.4,4.2-1.4,5.2
		c-1.8,1.1-4.2,0.4-5.2-1.4c0,0,0,0,0,0c-1-1.8-0.4-4.2,1.4-5.2C141,29,143.3,29.6,144.3,31.4z M21.8,30.4c1.5,1.5,1.5,3.9,0.1,5.4
		c-1.5,1.5-3.9,1.5-5.4,0.1c0,0-0.1-0.1-0.1-0.1c-1.5-1.5-1.4-3.9,0.1-5.4C18,29,20.3,29,21.8,30.4z M55.6,32.6
		c0.6,1.3,0,2.9-1.3,3.5c-1.3,0.6-2.9,0-3.5-1.3c0,0,0-0.1-0.1-0.1c-0.5-1.4,0.1-2.9,1.5-3.4C53.5,30.7,55,31.3,55.6,32.6z
		 M108.1,31.1c1.2,0.9,1.5,2.5,0.6,3.7c-0.9,1.2-2.5,1.5-3.7,0.6c0,0-0.1-0.1-0.1-0.1c-1.1-0.9-1.3-2.6-0.4-3.7
		C105.4,30.5,107,30.3,108.1,31.1z M34.9,30c1.2,1.4,0.9,3.5-0.5,4.7c-1.4,1.2-3.5,0.9-4.7-0.5c0,0,0-0.1-0.1-0.1
		c-1.1-1.5-0.8-3.6,0.6-4.7C31.7,28.3,33.8,28.6,34.9,30z M119.8,29.8c1.2,1.2,1.2,3.1,0,4.3s-3.1,1.2-4.3,0s-1.2-3.1,0-4.3
		S118.7,28.6,119.8,29.8z M46.1,30.3c0.8,1.4,0.3,3.3-1.1,4.1c-1.4,0.8-3.3,0.3-4.1-1.1C40,31.9,40.5,30,42,29.2
		C43.4,28.4,45.2,28.9,46.1,30.3L46.1,30.3L46.1,30.3z M130.1,29.3c1.2,1.4,0.9,3.5-0.5,4.7c-1.4,1.2-3.5,0.9-4.7-0.5
		c0,0,0-0.1-0.1-0.1c-1.1-1.5-0.8-3.6,0.6-4.7C126.9,27.7,129,27.9,130.1,29.3z M68.6,27.8c0.2,1.4-0.7,2.8-2.2,3
		c-1.4,0.2-2.8-0.7-3-2.2c0,0,0-0.1,0-0.1c-0.2-1.5,0.9-2.8,2.3-2.9C67.1,25.5,68.4,26.4,68.6,27.8z M94.6,25.5
		c1.4,0.5,2.1,2,1.5,3.4s-2,2.1-3.4,1.5c0,0-0.1,0-0.1,0c-1.3-0.6-2-2.1-1.4-3.5C91.8,25.7,93.3,25,94.6,25.5z M80.1,23.6
		c1.4,0.2,2.5,1.5,2.3,2.9c-0.2,1.4-1.5,2.5-2.9,2.3l0,0c-1.4-0.2-2.5-1.5-2.3-2.9C77.4,24.5,78.7,23.5,80.1,23.6L80.1,23.6z
		 M105.4,21.3c1.4,0.8,1.9,2.7,1.1,4.1c-0.8,1.4-2.7,1.9-4.1,1.1l0,0c-1.4-0.8-1.9-2.7-1.1-4.1C102.2,21,104,20.5,105.4,21.3z
		 M60.2,23.1c0.4,1.6-0.5,3.3-2.1,3.7c-1.6,0.4-3.3-0.5-3.7-2.1l0,0c-0.4-1.6,0.5-3.3,2.1-3.7C58.1,20.5,59.8,21.5,60.2,23.1
		L60.2,23.1z M49.2,19.9c0.7,1.7-0.1,3.7-1.7,4.4c-1.7,0.7-3.7-0.1-4.4-1.7c0,0,0,0,0,0c-0.7-1.7,0.1-3.7,1.8-4.4
		C46.5,17.5,48.5,18.3,49.2,19.9z M115.4,18.1c1.5,1.1,1.8,3.2,0.7,4.7c-1.1,1.5-3.2,1.8-4.7,0.7l0,0c-1.5-1.1-1.7-3.2-0.6-4.7
		C111.9,17.3,114,17,115.4,18.1L115.4,18.1z M129.6,16.4c1.5,1.5,1.5,3.9,0.1,5.4c-1.5,1.5-3.9,1.5-5.4,0.1c0,0-0.1-0.1-0.1-0.1
		c-1.5-1.5-1.4-3.9,0.1-5.4C125.7,15,128.1,15,129.6,16.4z M89.3,16.9c1.6,0.4,2.6,2.1,2.1,3.7c-0.4,1.6-2.1,2.6-3.7,2.1
		s-2.6-2.1-2.1-3.7C86.1,17.4,87.7,16.5,89.3,16.9z M72.6,16.8c1.7,0,3,1.4,3,3s-1.4,3-3,3l0,0c-1.7,0-3-1.4-3-3S71,16.8,72.6,16.8
		L72.6,16.8z M36.6,17.1c1.1,1.8,0.4,4.2-1.4,5.2s-4.2,0.4-5.2-1.4s-0.4-4.2,1.4-5.2C33.2,14.6,35.6,15.2,36.6,17.1z M65.6,13.9
		c0.3,1.8-1,3.5-2.8,3.8s-3.5-1-3.8-2.8l0,0c-0.2-1.8,1.1-3.5,2.9-3.7C63.7,10.9,65.3,12.2,65.6,13.9L65.6,13.9z M98.4,11.1
		c1.7,0.7,2.6,2.6,1.9,4.3c-0.7,1.7-2.6,2.6-4.3,1.9c0,0,0,0,0,0c-1.7-0.7-2.5-2.7-1.8-4.4C94.8,11.2,96.7,10.4,98.4,11.1z
		 M80.1,8.7c1.8,0.2,3.1,1.8,3,3.6c-0.2,1.8-1.8,3.1-3.6,3c-0.1,0-0.1,0-0.2,0c-1.8-0.3-3.1-1.9-2.8-3.7C76.8,9.7,78.4,8.5,80.1,8.7
		z M111.4,5.8c1.8,1,2.5,3.3,1.5,5.2s-3.3,2.5-5.2,1.5c0,0-0.1,0-0.1-0.1c-1.8-1.1-2.4-3.4-1.3-5.2C107.4,5.4,109.6,4.8,111.4,5.8z
		 M54.4,8c0.6,2-0.6,4.1-2.6,4.7c-2,0.6-4.1-0.6-4.7-2.6c0,0,0-0.1,0-0.1c-0.5-2,0.7-4.1,2.7-4.6C51.8,4.8,53.8,6,54.4,8L54.4,8z
		 M91.1,0.2c2,0.5,3.3,2.6,2.8,4.6s-2.6,3.3-4.6,2.8c0,0-0.1,0-0.1,0c-2-0.6-3.2-2.7-2.6-4.7C87.1,0.8,89.1-0.4,91.1,0.2L91.1,0.2z
		 M70.1,0c2.1,0,3.8,1.6,3.9,3.7s-1.6,3.8-3.7,3.9c0,0-0.1,0-0.1,0c-2.1,0-3.8-1.8-3.7-3.9C66.4,1.7,68,0,70.1,0z"/>
</g>
<g>
	
		<linearGradient id="b_00000129204590986966272320000007479348859441269637_" gradientUnits="userSpaceOnUse" x1="-222.5939" y1="475.0312" x2="-223.0939" y2="474.5312" gradientTransform="matrix(160.0204 0 0 -160.001 35779.6406 76005.4766)">
		<stop  offset="0" style="stop-color:#00B1EE"/>
		<stop  offset="1" style="stop-color:#00B1EE;stop-opacity:0"/>
	</linearGradient>
	
		<path id="b_00000110471729822347639470000006531116669888415398_" style="fill:url(#b_00000129204590986966272320000007479348859441269637_);" d="
		M89.9,152.4c2.1,0,3.8,1.6,3.9,3.7c0,2.1-1.6,3.8-3.7,3.9c0,0-0.1,0-0.1,0c-2.1,0-3.8-1.8-3.7-3.9
		C86.2,154.1,87.8,152.4,89.9,152.4z M66.2,155.2c0.5-2,2.6-3.3,4.7-2.7c2,0.5,3.3,2.6,2.7,4.7c0,0,0,0,0,0c-0.6,2-2.7,3.2-4.7,2.6
		C66.8,159.2,65.7,157.2,66.2,155.2L66.2,155.2z M113,150c0.6,2-0.6,4.1-2.6,4.7c-2,0.6-4.1-0.6-4.7-2.6c0,0,0,0,0-0.1
		c-0.5-2,0.7-4.1,2.7-4.6C110.4,146.9,112.4,148,113,150z M52.4,147.6c1.8,1,2.5,3.3,1.5,5.2s-3.3,2.5-5.2,1.5c0,0-0.1,0-0.1-0.1
		c-1.8-1.1-2.4-3.4-1.3-5.2C48.3,147.2,50.6,146.6,52.4,147.6z M81.2,143.3c1.8,0.2,3.1,1.8,2.9,3.6c-0.2,1.8-1.8,3.1-3.6,2.9
		c0,0-0.1,0-0.1,0c-1.8-0.3-3.1-1.9-2.8-3.7C77.8,144.3,79.4,143.1,81.2,143.3z M64.5,141.4c1.7,0.7,2.6,2.6,1.9,4.3
		c-0.7,1.7-2.6,2.6-4.3,1.9c0,0,0,0,0,0c-1.7-0.7-2.5-2.7-1.8-4.4C60.9,141.5,62.8,140.7,64.5,141.4z M101.4,143.7
		c0.3,1.8-1,3.5-2.8,3.8c-1.8,0.3-3.5-1-3.8-2.8c0,0,0-0.1,0-0.1c-0.2-1.8,1.1-3.5,2.9-3.7C99.5,140.7,101.1,142,101.4,143.7z
		 M130,139.1c1.1,1.8,0.5,4.1-1.3,5.2c-1.8,1.1-4.1,0.5-5.2-1.3c0,0,0-0.1-0.1-0.1c-1-1.8-0.4-4.2,1.5-5.2
		C126.6,136.8,128.9,137.4,130,139.1z M35.8,138.2c1.5,1.5,1.6,3.9,0.1,5.4c-1.5,1.5-3.9,1.6-5.4,0.1c0,0-0.1-0.1-0.1-0.1
		c-1.5-1.5-1.4-3.9,0.1-5.4C32,136.8,34.3,136.8,35.8,138.2L35.8,138.2z M88.4,137.7c1.7,0,3,1.4,3,3s-1.4,3-3,3s-3-1.4-3-3
		S86.7,137.7,88.4,137.7z M73.2,137.8c1.6,0.4,2.6,2.1,2.1,3.7s-2.1,2.6-3.7,2.1l0,0c-1.6-0.4-2.6-2.1-2.1-3.7
		S71.6,137.3,73.2,137.8L73.2,137.8z M49,135.2c1.5,1.1,1.8,3.2,0.7,4.7c-1.1,1.5-3.2,1.8-4.7,0.7c0,0-0.1,0-0.1-0.1
		c-1.5-1.1-1.7-3.2-0.6-4.7C45.5,134.4,47.5,134.1,49,135.2z M117.3,136.1c0.7,1.7-0.1,3.7-1.7,4.4c-1.7,0.7-3.7-0.1-4.4-1.7
		c0,0,0,0,0,0c-0.7-1.7,0.1-3.7,1.8-4.4C114.7,133.6,116.6,134.4,117.3,136.1z M106.7,135.8c0.4,1.6-0.5,3.3-2.1,3.7
		s-3.3-0.5-3.7-2.1c-0.4-1.6,0.5-3.3,2.1-3.7S106.2,134.2,106.7,135.8L106.7,135.8L106.7,135.8z M58.6,133.9
		c1.4,0.8,1.9,2.7,1.1,4.1c-0.8,1.4-2.7,1.9-4.1,1.1l0,0c-1.4-0.8-1.9-2.7-1.1-4.1C55.3,133.6,57.1,133.1,58.6,133.9L58.6,133.9z
		 M80.9,130.5c1.4,0.2,2.5,1.5,2.3,2.9c-0.2,1.4-1.5,2.5-2.9,2.3c-1.4-0.2-2.5-1.5-2.3-2.9C78.2,131.3,79.5,130.3,80.9,130.5
		L80.9,130.5L80.9,130.5z M67.7,129c1.4,0.5,2.1,2,1.6,3.4c-0.5,1.4-2,2.1-3.4,1.6c0,0-0.1,0-0.1-0.1c-1.3-0.6-2-2.1-1.4-3.5
		C64.9,129.1,66.4,128.5,67.7,129z M97,130.8c0.2,1.4-0.7,2.8-2.2,3.1c-1.4,0.2-2.8-0.7-3.1-2.2c0-0.1,0-0.1,0-0.2
		c-0.2-1.5,0.9-2.8,2.3-2.9C95.5,128.5,96.7,129.5,97,130.8z M120.2,127.2c0.8,1.4,0.3,3.3-1.1,4.1c-1.4,0.8-3.3,0.3-4.1-1.1
		s-0.3-3.3,1.1-4.1C117.5,125.2,119.3,125.7,120.2,127.2z M45.4,126.4c1.2,1.2,1.2,3.1,0,4.3s-3.1,1.2-4.3,0c-1.2-1.2-1.2-3.1,0-4.3
		S44.3,125.3,45.4,126.4C45.4,126.4,45.4,126.4,45.4,126.4z M143.6,124.2c1.5,1.5,1.5,3.9,0.1,5.4c-1.5,1.5-3.9,1.5-5.4,0.1
		c0,0-0.1-0.1-0.1-0.1c-1.5-1.5-1.4-3.9,0.1-5.4C139.7,122.7,142.1,122.7,143.6,124.2z M35.6,125.2c1.2,1.4,0.9,3.5-0.5,4.7
		c-1.4,1.2-3.5,0.9-4.7-0.5c0,0,0-0.1-0.1-0.1c-1.1-1.5-0.8-3.6,0.6-4.7C32.4,123.5,34.4,123.8,35.6,125.2z M22.3,124.8
		c1.1,1.8,0.4,4.2-1.4,5.2c-1.8,1.1-4.2,0.4-5.2-1.4c0,0,0,0,0,0c-1-1.8-0.4-4.2,1.4-5.2C18.9,122.3,21.2,123,22.3,124.8z
		 M130.8,124.5c1.2,1.4,0.9,3.5-0.5,4.7s-3.5,0.9-4.7-0.5c0,0,0-0.1-0.1-0.1c-1.1-1.5-0.8-3.6,0.6-4.7
		C127.6,122.9,129.6,123.1,130.8,124.5z M55.4,124.1c1.2,0.8,1.5,2.5,0.6,3.7s-2.5,1.5-3.7,0.6c0,0-0.1-0.1-0.1-0.1
		c-1.1-0.9-1.3-2.6-0.4-3.7C52.6,123.5,54.2,123.2,55.4,124.1z M109.6,124.8c0.6,1.3,0,2.9-1.3,3.5c-1.3,0.6-2.9,0-3.5-1.3
		c0,0,0-0.1,0-0.1c-0.5-1.4,0.1-2.9,1.5-3.4C107.6,122.9,109.1,123.5,109.6,124.8L109.6,124.8z M131,115.3c1.2,1.2,1.2,3.1,0,4.3
		s-3.1,1.2-4.3,0s-1.2-3.1,0-4.3S129.8,114.1,131,115.3z M44.7,116.1c0.9,1.1,0.8,2.8-0.4,3.7c-1.1,0.9-2.8,0.8-3.7-0.4
		c0,0-0.1-0.1-0.1-0.1c-0.9-1.2-0.6-2.8,0.6-3.7C42.2,114.8,43.8,115,44.7,116.1z M34.7,115.8c0.8,1.4,0.3,3.3-1.1,4.1
		c-1.4,0.8-3.3,0.3-4.1-1.1s-0.3-3.3,1.1-4.1C32,113.8,33.9,114.3,34.7,115.8L34.7,115.8z M120.3,115.6c0.9,1.1,0.8,2.8-0.4,3.7
		s-2.8,0.8-3.7-0.4c0,0-0.1-0.1-0.1-0.1c-0.9-1.2-0.6-2.8,0.6-3.7C117.8,114.3,119.4,114.5,120.3,115.6z M25.2,112.1
		c0.7,1.7-0.1,3.7-1.7,4.4s-3.7-0.1-4.4-1.7c0,0,0,0,0,0c-0.7-1.7,0.1-3.7,1.8-4.4C22.5,109.6,24.5,110.4,25.2,112.1z M140.7,109.9
		c1.5,1.1,1.8,3.2,0.7,4.7s-3.2,1.8-4.7,0.7c-1.5-1.1-1.7-3.2-0.6-4.7C137.2,109.1,139.3,108.8,140.7,109.9L140.7,109.9z
		 M152.8,106.2c1.8,1,2.5,3.4,1.4,5.2c-1,1.8-3.4,2.5-5.2,1.4c0,0,0,0,0,0c-1.8-1.1-2.4-3.4-1.4-5.2
		C148.7,105.8,151,105.2,152.8,106.2z M12.6,108.3c0.6,2-0.6,4.1-2.6,4.7c-2,0.6-4.1-0.6-4.7-2.6c0,0,0,0,0-0.1
		c-0.5-2,0.7-4.1,2.7-4.6C10,105.1,12.1,106.3,12.6,108.3z M36.5,105.7c0.6,1.3,0,2.9-1.3,3.5s-2.9,0-3.5-1.3c0,0,0-0.1-0.1-0.1
		c-0.5-1.4,0.1-2.9,1.5-3.4C34.4,103.8,35.9,104.4,36.5,105.7z M128.2,104c1.2,0.8,1.5,2.5,0.6,3.7c-0.8,1.2-2.5,1.5-3.7,0.6
		c0,0-0.1-0.1-0.1-0.1c-1.1-0.9-1.3-2.6-0.4-3.7C125.5,103.4,127.1,103.2,128.2,104z M138.3,101.1c1.4,0.8,1.9,2.7,1.1,4.1
		c-0.8,1.4-2.7,1.9-4.1,1.1s-1.9-2.7-1.1-4.1C135,100.7,136.9,100.2,138.3,101.1L138.3,101.1z M27.1,102.7c0.4,1.6-0.5,3.3-2.1,3.7
		c-1.6,0.4-3.3-0.5-3.7-2.1c-0.4-1.6,0.5-3.3,2.1-3.7C25,100.1,26.6,101.1,27.1,102.7L27.1,102.7z M18.6,96.7c0.3,1.8-1,3.5-2.8,3.8
		s-3.5-1-3.8-2.8c-0.2-1.8,1.1-3.5,2.9-3.7C16.7,93.7,18.3,95,18.6,96.7L18.6,96.7z M146.6,93.2c1.7,0.7,2.6,2.6,1.9,4.3
		c-0.7,1.7-2.6,2.6-4.3,1.9c0,0,0,0,0,0c-1.7-0.7-2.5-2.7-1.8-4.4C143,93.3,144.9,92.5,146.6,93.2z M31.3,93.5
		c0.2,1.4-0.7,2.8-2.2,3.1c-1.4,0.2-2.8-0.7-3.1-2.2c0-0.1,0-0.1,0-0.2c-0.2-1.5,0.9-2.8,2.3-2.9C29.8,91.2,31,92.2,31.3,93.5z
		 M132.9,90.7c1.4,0.5,2.1,2,1.6,3.4s-2,2.1-3.4,1.6c-0.1,0-0.1,0-0.1-0.1c-1.3-0.6-1.9-2.2-1.4-3.5
		C130.1,90.9,131.5,90.2,132.9,90.7z M152.5,89.2c0.5-2,2.6-3.3,4.6-2.7c2,0.5,3.3,2.6,2.7,4.6c0,0,0,0,0,0.1
		c-0.6,2-2.7,3.2-4.7,2.6C153.1,93.2,152,91.2,152.5,89.2z M3.8,86.1c2.1,0,3.8,1.6,3.9,3.7S6.1,93.7,4,93.7c-0.1,0-0.1,0-0.2,0
		c-2.1,0-3.8-1.8-3.7-3.9C0.1,87.8,1.8,86.1,3.8,86.1L3.8,86.1z M141.7,85.4c1.6,0.4,2.6,2.1,2.1,3.7c-0.4,1.6-2.1,2.6-3.7,2.1
		s-2.6-2.1-2.1-3.7S140.1,85,141.7,85.4z M20,85.1c1.7,0,3,1.4,3,3s-1.4,3-3,3l0,0c-1.7,0-3-1.4-3-3S18.4,85.1,20,85.1z M13.1,76.7
		c1.8,0.2,3.1,1.8,2.9,3.6s-1.8,3.1-3.6,2.9c0,0-0.1,0-0.1,0c-1.8-0.2-3.1-1.9-2.8-3.7C9.7,77.8,11.3,76.5,13.1,76.7z M26.9,77.7
		c1.4,0.2,2.5,1.5,2.3,2.9C29,82,27.7,83,26.3,82.9l0,0c-1.4-0.2-2.5-1.5-2.3-2.9C24.2,78.5,25.5,77.5,26.9,77.7z M147.7,75.7
		c1.8,0.2,3.1,1.8,2.9,3.6c-0.2,1.8-1.8,3.1-3.6,2.9c0,0-0.1,0-0.1,0c-1.8-0.2-3.1-1.9-2.8-3.7C144.3,76.8,145.9,75.5,147.7,75.7z
		 M133.7,76.8c1.4,0.2,2.5,1.5,2.3,2.9c-0.2,1.4-1.5,2.5-2.9,2.3c0,0,0,0,0,0c-1.4-0.2-2.5-1.5-2.3-2.9
		C131,77.7,132.3,76.7,133.7,76.8z M141,69.4c1.7,0,3,1.4,3,3s-1.4,3-3,3c0,0,0,0,0,0c-1.7,0-3-1.4-3-3
		C138,70.7,139.3,69.4,141,69.4z M20.8,69.3c1.6,0.4,2.6,2.1,2.1,3.7c-0.4,1.6-2.1,2.6-3.7,2.1c-1.6-0.4-2.6-2.1-2.1-3.7
		C17.6,69.8,19.2,68.8,20.8,69.3L20.8,69.3z M156.2,66.3c2.1,0,3.8,1.6,3.9,3.7c0,2.1-1.6,3.8-3.7,3.9c0,0-0.1,0-0.1,0
		c-2.1,0-3.8-1.7-3.8-3.8C152.4,68,154.1,66.3,156.2,66.3L156.2,66.3z M0.2,68.9c0.5-2,2.6-3.3,4.6-2.7s3.3,2.6,2.7,4.6
		c0,0,0,0,0,0.1c-0.6,2-2.7,3.2-4.7,2.6C0.8,72.9-0.4,70.9,0.2,68.9z M29.4,63.8c1.4,0.5,2.1,2,1.5,3.4c-0.5,1.4-2,2.1-3.4,1.5
		c0,0-0.1,0-0.1,0c-1.3-0.6-2-2.1-1.4-3.5C26.6,63.9,28.1,63.3,29.4,63.8L29.4,63.8z M134.3,65.1c0.2,1.4-0.7,2.8-2.2,3
		s-2.8-0.7-3-2.2c0,0,0-0.1,0-0.1c-0.2-1.5,0.9-2.8,2.3-2.9C132.8,62.8,134.1,63.7,134.3,65.1z M16.3,59.3c1.7,0.7,2.6,2.6,1.9,4.3
		c-0.7,1.7-2.6,2.6-4.3,1.9c0,0,0,0,0,0c-1.7-0.7-2.5-2.7-1.8-4.4C12.7,59.4,14.6,58.6,16.3,59.3z M148.4,61c0.3,1.8-1,3.5-2.8,3.8
		c-1.8,0.3-3.5-1-3.8-2.8c0,0,0-0.1,0-0.1c-0.2-1.8,1.1-3.5,2.9-3.7C146.5,57.9,148.1,59.2,148.4,61L148.4,61z M139.8,56.2
		c0.4,1.6-0.5,3.3-2.1,3.7c-1.6,0.4-3.3-0.5-3.7-2.1l0,0c-0.4-1.6,0.5-3.3,2.1-3.7C137.7,53.7,139.4,54.6,139.8,56.2z M25.7,54.2
		c1.4,0.8,1.9,2.7,1.1,4.1c-0.8,1.4-2.7,1.9-4.1,1.1s-1.9-2.7-1.1-4.1C22.4,53.9,24.3,53.4,25.7,54.2L25.7,54.2z M35.3,51.2
		c1.2,0.8,1.5,2.5,0.6,3.7s-2.5,1.5-3.7,0.6c0,0-0.1-0.1-0.1-0.1c-1.1-0.9-1.3-2.6-0.4-3.7C32.6,50.6,34.1,50.4,35.3,51.2z
		 M128.7,51.6c0.6,1.3,0,2.9-1.3,3.5c-1.3,0.6-2.9,0-3.5-1.3c0,0,0-0.1-0.1-0.1c-0.5-1.4,0.1-2.9,1.5-3.4
		C126.6,49.7,128.1,50.3,128.7,51.6z M154.7,49.7c0.6,2-0.6,4.1-2.6,4.7s-4.1-0.6-4.7-2.6c0,0,0,0,0-0.1c-0.5-2,0.7-4.1,2.7-4.6
		C152.1,46.5,154.2,47.7,154.7,49.7z M11,47.2c1.8,1,2.5,3.4,1.5,5.2s-3.4,2.5-5.2,1.5c0,0-0.1,0-0.1,0c-1.8-1.1-2.4-3.4-1.4-5.2
		C6.8,46.8,9.2,46.1,11,47.2L11,47.2z M23.7,43.4c1.5,1.1,1.8,3.2,0.7,4.7c-1.1,1.5-3.2,1.8-4.7,0.7c0,0-0.1,0-0.1-0.1
		c-1.5-1.1-1.7-3.2-0.6-4.7C20.2,42.6,22.2,42.3,23.7,43.4z M141.3,43.9c0.7,1.7,0,3.7-1.7,4.4s-3.7,0-4.4-1.7c0,0,0,0,0-0.1
		c-0.7-1.7,0.1-3.7,1.8-4.4C138.7,41.5,140.6,42.3,141.3,43.9z M131.6,41.7c0.8,1.4,0.3,3.3-1.1,4.1c-1.4,0.8-3.3,0.3-4.1-1.1l0,0
		c-0.8-1.4-0.3-3.3,1.1-4.1C128.9,39.8,130.7,40.3,131.6,41.7L131.6,41.7z M34.3,40.9c1.2,1.2,1.2,3.1,0,4.3s-3.1,1.2-4.3,0
		s-1.2-3.1,0-4.3S33.1,39.7,34.3,40.9z M44.2,40.6c0.9,1.1,0.8,2.8-0.4,3.7c-1.1,0.9-2.8,0.8-3.7-0.4c0,0-0.1-0.1-0.1-0.1
		c-0.9-1.2-0.6-2.8,0.6-3.7C41.7,39.3,43.3,39.5,44.2,40.6z M119.8,40c0.9,1.1,0.8,2.8-0.4,3.7s-2.8,0.8-3.7-0.4
		c0,0-0.1-0.1-0.1-0.1c-0.9-1.2-0.6-2.8,0.6-3.7C117.3,38.7,118.9,38.9,119.8,40z M144.3,31.4c1.1,1.8,0.4,4.2-1.4,5.2
		c-1.8,1.1-4.2,0.4-5.2-1.4c0,0,0,0,0,0c-1-1.8-0.4-4.2,1.4-5.2C141,29,143.3,29.6,144.3,31.4z M21.8,30.4c1.5,1.5,1.5,3.9,0.1,5.4
		c-1.5,1.5-3.9,1.5-5.4,0.1c0,0-0.1-0.1-0.1-0.1c-1.5-1.5-1.4-3.9,0.1-5.4C18,29,20.3,29,21.8,30.4z M55.6,32.6
		c0.6,1.3,0,2.9-1.3,3.5c-1.3,0.6-2.9,0-3.5-1.3c0,0,0-0.1-0.1-0.1c-0.5-1.4,0.1-2.9,1.5-3.4C53.5,30.7,55,31.3,55.6,32.6z
		 M108.1,31.1c1.2,0.9,1.5,2.5,0.6,3.7c-0.9,1.2-2.5,1.5-3.7,0.6c0,0-0.1-0.1-0.1-0.1c-1.1-0.9-1.3-2.6-0.4-3.7
		C105.4,30.5,107,30.3,108.1,31.1z M34.9,30c1.2,1.4,0.9,3.5-0.5,4.7c-1.4,1.2-3.5,0.9-4.7-0.5c0,0,0-0.1-0.1-0.1
		c-1.1-1.5-0.8-3.6,0.6-4.7C31.7,28.3,33.8,28.6,34.9,30z M119.8,29.8c1.2,1.2,1.2,3.1,0,4.3s-3.1,1.2-4.3,0s-1.2-3.1,0-4.3
		S118.7,28.6,119.8,29.8z M46.1,30.3c0.8,1.4,0.3,3.3-1.1,4.1c-1.4,0.8-3.3,0.3-4.1-1.1C40,31.9,40.5,30,42,29.2
		C43.4,28.4,45.2,28.9,46.1,30.3L46.1,30.3L46.1,30.3z M130.1,29.3c1.2,1.4,0.9,3.5-0.5,4.7c-1.4,1.2-3.5,0.9-4.7-0.5
		c0,0,0-0.1-0.1-0.1c-1.1-1.5-0.8-3.6,0.6-4.7C126.9,27.7,129,27.9,130.1,29.3z M68.6,27.8c0.2,1.4-0.7,2.8-2.2,3
		c-1.4,0.2-2.8-0.7-3-2.2c0,0,0-0.1,0-0.1c-0.2-1.5,0.9-2.8,2.3-2.9C67.1,25.5,68.4,26.4,68.6,27.8z M94.6,25.5
		c1.4,0.5,2.1,2,1.5,3.4s-2,2.1-3.4,1.5c0,0-0.1,0-0.1,0c-1.3-0.6-2-2.1-1.4-3.5C91.8,25.7,93.3,25,94.6,25.5z M80.1,23.6
		c1.4,0.2,2.5,1.5,2.3,2.9c-0.2,1.4-1.5,2.5-2.9,2.3l0,0c-1.4-0.2-2.5-1.5-2.3-2.9C77.4,24.5,78.7,23.5,80.1,23.6L80.1,23.6z
		 M105.4,21.3c1.4,0.8,1.9,2.7,1.1,4.1c-0.8,1.4-2.7,1.9-4.1,1.1l0,0c-1.4-0.8-1.9-2.7-1.1-4.1C102.2,21,104,20.5,105.4,21.3z
		 M60.2,23.1c0.4,1.6-0.5,3.3-2.1,3.7c-1.6,0.4-3.3-0.5-3.7-2.1l0,0c-0.4-1.6,0.5-3.3,2.1-3.7C58.1,20.5,59.8,21.5,60.2,23.1
		L60.2,23.1z M49.2,19.9c0.7,1.7-0.1,3.7-1.7,4.4c-1.7,0.7-3.7-0.1-4.4-1.7c0,0,0,0,0,0c-0.7-1.7,0.1-3.7,1.8-4.4
		C46.5,17.5,48.5,18.3,49.2,19.9z M115.4,18.1c1.5,1.1,1.8,3.2,0.7,4.7c-1.1,1.5-3.2,1.8-4.7,0.7l0,0c-1.5-1.1-1.7-3.2-0.6-4.7
		C111.9,17.3,114,17,115.4,18.1L115.4,18.1z M129.6,16.4c1.5,1.5,1.5,3.9,0.1,5.4c-1.5,1.5-3.9,1.5-5.4,0.1c0,0-0.1-0.1-0.1-0.1
		c-1.5-1.5-1.4-3.9,0.1-5.4C125.7,15,128.1,15,129.6,16.4z M89.3,16.9c1.6,0.4,2.6,2.1,2.1,3.7c-0.4,1.6-2.1,2.6-3.7,2.1
		s-2.6-2.1-2.1-3.7C86.1,17.4,87.7,16.5,89.3,16.9z M72.6,16.8c1.7,0,3,1.4,3,3s-1.4,3-3,3l0,0c-1.7,0-3-1.4-3-3S71,16.8,72.6,16.8
		L72.6,16.8z M36.6,17.1c1.1,1.8,0.4,4.2-1.4,5.2s-4.2,0.4-5.2-1.4s-0.4-4.2,1.4-5.2C33.2,14.6,35.6,15.2,36.6,17.1z M65.6,13.9
		c0.3,1.8-1,3.5-2.8,3.8s-3.5-1-3.8-2.8l0,0c-0.2-1.8,1.1-3.5,2.9-3.7C63.7,10.9,65.3,12.2,65.6,13.9L65.6,13.9z M98.4,11.1
		c1.7,0.7,2.6,2.6,1.9,4.3c-0.7,1.7-2.6,2.6-4.3,1.9c0,0,0,0,0,0c-1.7-0.7-2.5-2.7-1.8-4.4C94.8,11.2,96.7,10.4,98.4,11.1z
		 M80.1,8.7c1.8,0.2,3.1,1.8,3,3.6c-0.2,1.8-1.8,3.1-3.6,3c-0.1,0-0.1,0-0.2,0c-1.8-0.3-3.1-1.9-2.8-3.7C76.8,9.7,78.4,8.5,80.1,8.7
		z M111.4,5.8c1.8,1,2.5,3.3,1.5,5.2s-3.3,2.5-5.2,1.5c0,0-0.1,0-0.1-0.1c-1.8-1.1-2.4-3.4-1.3-5.2C107.4,5.4,109.6,4.8,111.4,5.8z
		 M54.4,8c0.6,2-0.6,4.1-2.6,4.7c-2,0.6-4.1-0.6-4.7-2.6c0,0,0-0.1,0-0.1c-0.5-2,0.7-4.1,2.7-4.6C51.8,4.8,53.8,6,54.4,8L54.4,8z
		 M91.1,0.2c2,0.5,3.3,2.6,2.8,4.6s-2.6,3.3-4.6,2.8c0,0-0.1,0-0.1,0c-2-0.6-3.2-2.7-2.6-4.7C87.1,0.8,89.1-0.4,91.1,0.2L91.1,0.2z
		 M70.1,0c2.1,0,3.8,1.6,3.9,3.7s-1.6,3.8-3.7,3.9c0,0-0.1,0-0.1,0c-2.1,0-3.8-1.8-3.7-3.9C66.4,1.7,68,0,70.1,0z"/>
</g>
<g>
	
		<linearGradient id="b_00000054961193276958276650000000854800318781347488_" gradientUnits="userSpaceOnUse" x1="-223.7711" y1="474.8248" x2="-223.103" y2="474.535" gradientTransform="matrix(160.0204 0 0 -160.001 35779.6406 76005.4766)">
		<stop  offset="0" style="stop-color:#FFA456"/>
		<stop  offset="1" style="stop-color:#FFA456;stop-opacity:0"/>
	</linearGradient>
	
		<path id="b_00000152252762348774254440000003490768373265887648_" style="fill:url(#b_00000054961193276958276650000000854800318781347488_);" d="
		M89.9,152.4c2.1,0,3.8,1.6,3.9,3.7c0,2.1-1.6,3.8-3.7,3.9c0,0-0.1,0-0.1,0c-2.1,0-3.8-1.8-3.7-3.9
		C86.2,154.1,87.8,152.4,89.9,152.4z M66.2,155.2c0.5-2,2.6-3.3,4.7-2.7c2,0.5,3.3,2.6,2.7,4.7c0,0,0,0,0,0c-0.6,2-2.7,3.2-4.7,2.6
		C66.8,159.2,65.7,157.2,66.2,155.2L66.2,155.2z M113,150c0.6,2-0.6,4.1-2.6,4.7c-2,0.6-4.1-0.6-4.7-2.6c0,0,0,0,0-0.1
		c-0.5-2,0.7-4.1,2.7-4.6C110.4,146.9,112.4,148,113,150z M52.4,147.6c1.8,1,2.5,3.3,1.5,5.2s-3.3,2.5-5.2,1.5c0,0-0.1,0-0.1-0.1
		c-1.8-1.1-2.4-3.4-1.3-5.2C48.3,147.2,50.6,146.6,52.4,147.6z M81.2,143.3c1.8,0.2,3.1,1.8,2.9,3.6c-0.2,1.8-1.8,3.1-3.6,2.9
		c0,0-0.1,0-0.1,0c-1.8-0.3-3.1-1.9-2.8-3.7C77.8,144.3,79.4,143.1,81.2,143.3z M64.5,141.4c1.7,0.7,2.6,2.6,1.9,4.3
		c-0.7,1.7-2.6,2.6-4.3,1.9c0,0,0,0,0,0c-1.7-0.7-2.5-2.7-1.8-4.4C60.9,141.5,62.8,140.7,64.5,141.4z M101.4,143.7
		c0.3,1.8-1,3.5-2.8,3.8c-1.8,0.3-3.5-1-3.8-2.8c0,0,0-0.1,0-0.1c-0.2-1.8,1.1-3.5,2.9-3.7C99.5,140.7,101.1,142,101.4,143.7z
		 M130,139.1c1.1,1.8,0.5,4.1-1.3,5.2c-1.8,1.1-4.1,0.5-5.2-1.3c0,0,0-0.1-0.1-0.1c-1-1.8-0.4-4.2,1.5-5.2
		C126.6,136.8,128.9,137.4,130,139.1z M35.8,138.2c1.5,1.5,1.6,3.9,0.1,5.4c-1.5,1.5-3.9,1.6-5.4,0.1c0,0-0.1-0.1-0.1-0.1
		c-1.5-1.5-1.4-3.9,0.1-5.4C32,136.8,34.3,136.8,35.8,138.2L35.8,138.2z M88.4,137.7c1.7,0,3,1.4,3,3s-1.4,3-3,3s-3-1.4-3-3
		S86.7,137.7,88.4,137.7z M73.2,137.8c1.6,0.4,2.6,2.1,2.1,3.7s-2.1,2.6-3.7,2.1l0,0c-1.6-0.4-2.6-2.1-2.1-3.7
		S71.6,137.3,73.2,137.8L73.2,137.8z M49,135.2c1.5,1.1,1.8,3.2,0.7,4.7c-1.1,1.5-3.2,1.8-4.7,0.7c0,0-0.1,0-0.1-0.1
		c-1.5-1.1-1.7-3.2-0.6-4.7C45.5,134.4,47.5,134.1,49,135.2z M117.3,136.1c0.7,1.7-0.1,3.7-1.7,4.4c-1.7,0.7-3.7-0.1-4.4-1.7
		c0,0,0,0,0,0c-0.7-1.7,0.1-3.7,1.8-4.4C114.7,133.6,116.6,134.4,117.3,136.1z M106.7,135.8c0.4,1.6-0.5,3.3-2.1,3.7
		s-3.3-0.5-3.7-2.1c-0.4-1.6,0.5-3.3,2.1-3.7S106.2,134.2,106.7,135.8L106.7,135.8L106.7,135.8z M58.6,133.9
		c1.4,0.8,1.9,2.7,1.1,4.1c-0.8,1.4-2.7,1.9-4.1,1.1l0,0c-1.4-0.8-1.9-2.7-1.1-4.1C55.3,133.6,57.1,133.1,58.6,133.9L58.6,133.9z
		 M80.9,130.5c1.4,0.2,2.5,1.5,2.3,2.9c-0.2,1.4-1.5,2.5-2.9,2.3c-1.4-0.2-2.5-1.5-2.3-2.9C78.2,131.3,79.5,130.3,80.9,130.5
		L80.9,130.5L80.9,130.5z M67.7,129c1.4,0.5,2.1,2,1.6,3.4c-0.5,1.4-2,2.1-3.4,1.6c0,0-0.1,0-0.1-0.1c-1.3-0.6-2-2.1-1.4-3.5
		C64.9,129.1,66.4,128.5,67.7,129z M97,130.8c0.2,1.4-0.7,2.8-2.2,3.1c-1.4,0.2-2.8-0.7-3.1-2.2c0-0.1,0-0.1,0-0.2
		c-0.2-1.5,0.9-2.8,2.3-2.9C95.5,128.5,96.7,129.5,97,130.8z M120.2,127.2c0.8,1.4,0.3,3.3-1.1,4.1c-1.4,0.8-3.3,0.3-4.1-1.1
		s-0.3-3.3,1.1-4.1C117.5,125.2,119.3,125.7,120.2,127.2z M45.4,126.4c1.2,1.2,1.2,3.1,0,4.3s-3.1,1.2-4.3,0c-1.2-1.2-1.2-3.1,0-4.3
		S44.3,125.3,45.4,126.4C45.4,126.4,45.4,126.4,45.4,126.4z M143.6,124.2c1.5,1.5,1.5,3.9,0.1,5.4c-1.5,1.5-3.9,1.5-5.4,0.1
		c0,0-0.1-0.1-0.1-0.1c-1.5-1.5-1.4-3.9,0.1-5.4C139.7,122.7,142.1,122.7,143.6,124.2z M35.6,125.2c1.2,1.4,0.9,3.5-0.5,4.7
		c-1.4,1.2-3.5,0.9-4.7-0.5c0,0,0-0.1-0.1-0.1c-1.1-1.5-0.8-3.6,0.6-4.7C32.4,123.5,34.4,123.8,35.6,125.2z M22.3,124.8
		c1.1,1.8,0.4,4.2-1.4,5.2c-1.8,1.1-4.2,0.4-5.2-1.4c0,0,0,0,0,0c-1-1.8-0.4-4.2,1.4-5.2C18.9,122.3,21.2,123,22.3,124.8z
		 M130.8,124.5c1.2,1.4,0.9,3.5-0.5,4.7s-3.5,0.9-4.7-0.5c0,0,0-0.1-0.1-0.1c-1.1-1.5-0.8-3.6,0.6-4.7
		C127.6,122.9,129.6,123.1,130.8,124.5z M55.4,124.1c1.2,0.8,1.5,2.5,0.6,3.7s-2.5,1.5-3.7,0.6c0,0-0.1-0.1-0.1-0.1
		c-1.1-0.9-1.3-2.6-0.4-3.7C52.6,123.5,54.2,123.2,55.4,124.1z M109.6,124.8c0.6,1.3,0,2.9-1.3,3.5c-1.3,0.6-2.9,0-3.5-1.3
		c0,0,0-0.1,0-0.1c-0.5-1.4,0.1-2.9,1.5-3.4C107.6,122.9,109.1,123.5,109.6,124.8L109.6,124.8z M131,115.3c1.2,1.2,1.2,3.1,0,4.3
		s-3.1,1.2-4.3,0s-1.2-3.1,0-4.3S129.8,114.1,131,115.3z M44.7,116.1c0.9,1.1,0.8,2.8-0.4,3.7c-1.1,0.9-2.8,0.8-3.7-0.4
		c0,0-0.1-0.1-0.1-0.1c-0.9-1.2-0.6-2.8,0.6-3.7C42.2,114.8,43.8,115,44.7,116.1z M34.7,115.8c0.8,1.4,0.3,3.3-1.1,4.1
		c-1.4,0.8-3.3,0.3-4.1-1.1s-0.3-3.3,1.1-4.1C32,113.8,33.9,114.3,34.7,115.8L34.7,115.8z M120.3,115.6c0.9,1.1,0.8,2.8-0.4,3.7
		s-2.8,0.8-3.7-0.4c0,0-0.1-0.1-0.1-0.1c-0.9-1.2-0.6-2.8,0.6-3.7C117.8,114.3,119.4,114.5,120.3,115.6z M25.2,112.1
		c0.7,1.7-0.1,3.7-1.7,4.4s-3.7-0.1-4.4-1.7c0,0,0,0,0,0c-0.7-1.7,0.1-3.7,1.8-4.4C22.5,109.6,24.5,110.4,25.2,112.1z M140.7,109.9
		c1.5,1.1,1.8,3.2,0.7,4.7s-3.2,1.8-4.7,0.7c-1.5-1.1-1.7-3.2-0.6-4.7C137.2,109.1,139.3,108.8,140.7,109.9L140.7,109.9z
		 M152.8,106.2c1.8,1,2.5,3.4,1.4,5.2c-1,1.8-3.4,2.5-5.2,1.4c0,0,0,0,0,0c-1.8-1.1-2.4-3.4-1.4-5.2
		C148.7,105.8,151,105.2,152.8,106.2z M12.6,108.3c0.6,2-0.6,4.1-2.6,4.7c-2,0.6-4.1-0.6-4.7-2.6c0,0,0,0,0-0.1
		c-0.5-2,0.7-4.1,2.7-4.6C10,105.1,12.1,106.3,12.6,108.3z M36.5,105.7c0.6,1.3,0,2.9-1.3,3.5s-2.9,0-3.5-1.3c0,0,0-0.1-0.1-0.1
		c-0.5-1.4,0.1-2.9,1.5-3.4C34.4,103.8,35.9,104.4,36.5,105.7z M128.2,104c1.2,0.8,1.5,2.5,0.6,3.7c-0.8,1.2-2.5,1.5-3.7,0.6
		c0,0-0.1-0.1-0.1-0.1c-1.1-0.9-1.3-2.6-0.4-3.7C125.5,103.4,127.1,103.2,128.2,104z M138.3,101.1c1.4,0.8,1.9,2.7,1.1,4.1
		c-0.8,1.4-2.7,1.9-4.1,1.1s-1.9-2.7-1.1-4.1C135,100.7,136.9,100.2,138.3,101.1L138.3,101.1z M27.1,102.7c0.4,1.6-0.5,3.3-2.1,3.7
		c-1.6,0.4-3.3-0.5-3.7-2.1c-0.4-1.6,0.5-3.3,2.1-3.7C25,100.1,26.6,101.1,27.1,102.7L27.1,102.7z M18.6,96.7c0.3,1.8-1,3.5-2.8,3.8
		s-3.5-1-3.8-2.8c-0.2-1.8,1.1-3.5,2.9-3.7C16.7,93.7,18.3,95,18.6,96.7L18.6,96.7z M146.6,93.2c1.7,0.7,2.6,2.6,1.9,4.3
		c-0.7,1.7-2.6,2.6-4.3,1.9c0,0,0,0,0,0c-1.7-0.7-2.5-2.7-1.8-4.4C143,93.3,144.9,92.5,146.6,93.2z M31.3,93.5
		c0.2,1.4-0.7,2.8-2.2,3.1c-1.4,0.2-2.8-0.7-3.1-2.2c0-0.1,0-0.1,0-0.2c-0.2-1.5,0.9-2.8,2.3-2.9C29.8,91.2,31,92.2,31.3,93.5z
		 M132.9,90.7c1.4,0.5,2.1,2,1.6,3.4s-2,2.1-3.4,1.6c-0.1,0-0.1,0-0.1-0.1c-1.3-0.6-1.9-2.2-1.4-3.5
		C130.1,90.9,131.5,90.2,132.9,90.7z M152.5,89.2c0.5-2,2.6-3.3,4.6-2.7c2,0.5,3.3,2.6,2.7,4.6c0,0,0,0,0,0.1
		c-0.6,2-2.7,3.2-4.7,2.6C153.1,93.2,152,91.2,152.5,89.2z M3.8,86.1c2.1,0,3.8,1.6,3.9,3.7S6.1,93.7,4,93.7c-0.1,0-0.1,0-0.2,0
		c-2.1,0-3.8-1.8-3.7-3.9C0.1,87.8,1.8,86.1,3.8,86.1L3.8,86.1z M141.7,85.4c1.6,0.4,2.6,2.1,2.1,3.7c-0.4,1.6-2.1,2.6-3.7,2.1
		s-2.6-2.1-2.1-3.7S140.1,85,141.7,85.4z M20,85.1c1.7,0,3,1.4,3,3s-1.4,3-3,3l0,0c-1.7,0-3-1.4-3-3S18.4,85.1,20,85.1z M13.1,76.7
		c1.8,0.2,3.1,1.8,2.9,3.6s-1.8,3.1-3.6,2.9c0,0-0.1,0-0.1,0c-1.8-0.2-3.1-1.9-2.8-3.7C9.7,77.8,11.3,76.5,13.1,76.7z M26.9,77.7
		c1.4,0.2,2.5,1.5,2.3,2.9C29,82,27.7,83,26.3,82.9l0,0c-1.4-0.2-2.5-1.5-2.3-2.9C24.2,78.5,25.5,77.5,26.9,77.7z M147.7,75.7
		c1.8,0.2,3.1,1.8,2.9,3.6c-0.2,1.8-1.8,3.1-3.6,2.9c0,0-0.1,0-0.1,0c-1.8-0.2-3.1-1.9-2.8-3.7C144.3,76.8,145.9,75.5,147.7,75.7z
		 M133.7,76.8c1.4,0.2,2.5,1.5,2.3,2.9c-0.2,1.4-1.5,2.5-2.9,2.3c0,0,0,0,0,0c-1.4-0.2-2.5-1.5-2.3-2.9
		C131,77.7,132.3,76.7,133.7,76.8z M141,69.4c1.7,0,3,1.4,3,3s-1.4,3-3,3c0,0,0,0,0,0c-1.7,0-3-1.4-3-3
		C138,70.7,139.3,69.4,141,69.4z M20.8,69.3c1.6,0.4,2.6,2.1,2.1,3.7c-0.4,1.6-2.1,2.6-3.7,2.1c-1.6-0.4-2.6-2.1-2.1-3.7
		C17.6,69.8,19.2,68.8,20.8,69.3L20.8,69.3z M156.2,66.3c2.1,0,3.8,1.6,3.9,3.7c0,2.1-1.6,3.8-3.7,3.9c0,0-0.1,0-0.1,0
		c-2.1,0-3.8-1.7-3.8-3.8C152.4,68,154.1,66.3,156.2,66.3L156.2,66.3z M0.2,68.9c0.5-2,2.6-3.3,4.6-2.7s3.3,2.6,2.7,4.6
		c0,0,0,0,0,0.1c-0.6,2-2.7,3.2-4.7,2.6C0.8,72.9-0.4,70.9,0.2,68.9z M29.4,63.8c1.4,0.5,2.1,2,1.5,3.4c-0.5,1.4-2,2.1-3.4,1.5
		c0,0-0.1,0-0.1,0c-1.3-0.6-2-2.1-1.4-3.5C26.6,63.9,28.1,63.3,29.4,63.8L29.4,63.8z M134.3,65.1c0.2,1.4-0.7,2.8-2.2,3
		s-2.8-0.7-3-2.2c0,0,0-0.1,0-0.1c-0.2-1.5,0.9-2.8,2.3-2.9C132.8,62.8,134.1,63.7,134.3,65.1z M16.3,59.3c1.7,0.7,2.6,2.6,1.9,4.3
		c-0.7,1.7-2.6,2.6-4.3,1.9c0,0,0,0,0,0c-1.7-0.7-2.5-2.7-1.8-4.4C12.7,59.4,14.6,58.6,16.3,59.3z M148.4,61c0.3,1.8-1,3.5-2.8,3.8
		c-1.8,0.3-3.5-1-3.8-2.8c0,0,0-0.1,0-0.1c-0.2-1.8,1.1-3.5,2.9-3.7C146.5,57.9,148.1,59.2,148.4,61L148.4,61z M139.8,56.2
		c0.4,1.6-0.5,3.3-2.1,3.7c-1.6,0.4-3.3-0.5-3.7-2.1l0,0c-0.4-1.6,0.5-3.3,2.1-3.7C137.7,53.7,139.4,54.6,139.8,56.2z M25.7,54.2
		c1.4,0.8,1.9,2.7,1.1,4.1c-0.8,1.4-2.7,1.9-4.1,1.1s-1.9-2.7-1.1-4.1C22.4,53.9,24.3,53.4,25.7,54.2L25.7,54.2z M35.3,51.2
		c1.2,0.8,1.5,2.5,0.6,3.7s-2.5,1.5-3.7,0.6c0,0-0.1-0.1-0.1-0.1c-1.1-0.9-1.3-2.6-0.4-3.7C32.6,50.6,34.1,50.4,35.3,51.2z
		 M128.7,51.6c0.6,1.3,0,2.9-1.3,3.5c-1.3,0.6-2.9,0-3.5-1.3c0,0,0-0.1-0.1-0.1c-0.5-1.4,0.1-2.9,1.5-3.4
		C126.6,49.7,128.1,50.3,128.7,51.6z M154.7,49.7c0.6,2-0.6,4.1-2.6,4.7s-4.1-0.6-4.7-2.6c0,0,0,0,0-0.1c-0.5-2,0.7-4.1,2.7-4.6
		C152.1,46.5,154.2,47.7,154.7,49.7z M11,47.2c1.8,1,2.5,3.4,1.5,5.2s-3.4,2.5-5.2,1.5c0,0-0.1,0-0.1,0c-1.8-1.1-2.4-3.4-1.4-5.2
		C6.8,46.8,9.2,46.1,11,47.2L11,47.2z M23.7,43.4c1.5,1.1,1.8,3.2,0.7,4.7c-1.1,1.5-3.2,1.8-4.7,0.7c0,0-0.1,0-0.1-0.1
		c-1.5-1.1-1.7-3.2-0.6-4.7C20.2,42.6,22.2,42.3,23.7,43.4z M141.3,43.9c0.7,1.7,0,3.7-1.7,4.4s-3.7,0-4.4-1.7c0,0,0,0,0-0.1
		c-0.7-1.7,0.1-3.7,1.8-4.4C138.7,41.5,140.6,42.3,141.3,43.9z M131.6,41.7c0.8,1.4,0.3,3.3-1.1,4.1c-1.4,0.8-3.3,0.3-4.1-1.1l0,0
		c-0.8-1.4-0.3-3.3,1.1-4.1C128.9,39.8,130.7,40.3,131.6,41.7L131.6,41.7z M34.3,40.9c1.2,1.2,1.2,3.1,0,4.3s-3.1,1.2-4.3,0
		s-1.2-3.1,0-4.3S33.1,39.7,34.3,40.9z M44.2,40.6c0.9,1.1,0.8,2.8-0.4,3.7c-1.1,0.9-2.8,0.8-3.7-0.4c0,0-0.1-0.1-0.1-0.1
		c-0.9-1.2-0.6-2.8,0.6-3.7C41.7,39.3,43.3,39.5,44.2,40.6z M119.8,40c0.9,1.1,0.8,2.8-0.4,3.7s-2.8,0.8-3.7-0.4
		c0,0-0.1-0.1-0.1-0.1c-0.9-1.2-0.6-2.8,0.6-3.7C117.3,38.7,118.9,38.9,119.8,40z M144.3,31.4c1.1,1.8,0.4,4.2-1.4,5.2
		c-1.8,1.1-4.2,0.4-5.2-1.4c0,0,0,0,0,0c-1-1.8-0.4-4.2,1.4-5.2C141,29,143.3,29.6,144.3,31.4z M21.8,30.4c1.5,1.5,1.5,3.9,0.1,5.4
		c-1.5,1.5-3.9,1.5-5.4,0.1c0,0-0.1-0.1-0.1-0.1c-1.5-1.5-1.4-3.9,0.1-5.4C18,29,20.3,29,21.8,30.4z M55.6,32.6
		c0.6,1.3,0,2.9-1.3,3.5c-1.3,0.6-2.9,0-3.5-1.3c0,0,0-0.1-0.1-0.1c-0.5-1.4,0.1-2.9,1.5-3.4C53.5,30.7,55,31.3,55.6,32.6z
		 M108.1,31.1c1.2,0.9,1.5,2.5,0.6,3.7c-0.9,1.2-2.5,1.5-3.7,0.6c0,0-0.1-0.1-0.1-0.1c-1.1-0.9-1.3-2.6-0.4-3.7
		C105.4,30.5,107,30.3,108.1,31.1z M34.9,30c1.2,1.4,0.9,3.5-0.5,4.7c-1.4,1.2-3.5,0.9-4.7-0.5c0,0,0-0.1-0.1-0.1
		c-1.1-1.5-0.8-3.6,0.6-4.7C31.7,28.3,33.8,28.6,34.9,30z M119.8,29.8c1.2,1.2,1.2,3.1,0,4.3s-3.1,1.2-4.3,0s-1.2-3.1,0-4.3
		S118.7,28.6,119.8,29.8z M46.1,30.3c0.8,1.4,0.3,3.3-1.1,4.1c-1.4,0.8-3.3,0.3-4.1-1.1C40,31.9,40.5,30,42,29.2
		C43.4,28.4,45.2,28.9,46.1,30.3L46.1,30.3L46.1,30.3z M130.1,29.3c1.2,1.4,0.9,3.5-0.5,4.7c-1.4,1.2-3.5,0.9-4.7-0.5
		c0,0,0-0.1-0.1-0.1c-1.1-1.5-0.8-3.6,0.6-4.7C126.9,27.7,129,27.9,130.1,29.3z M68.6,27.8c0.2,1.4-0.7,2.8-2.2,3
		c-1.4,0.2-2.8-0.7-3-2.2c0,0,0-0.1,0-0.1c-0.2-1.5,0.9-2.8,2.3-2.9C67.1,25.5,68.4,26.4,68.6,27.8z M94.6,25.5
		c1.4,0.5,2.1,2,1.5,3.4s-2,2.1-3.4,1.5c0,0-0.1,0-0.1,0c-1.3-0.6-2-2.1-1.4-3.5C91.8,25.7,93.3,25,94.6,25.5z M80.1,23.6
		c1.4,0.2,2.5,1.5,2.3,2.9c-0.2,1.4-1.5,2.5-2.9,2.3l0,0c-1.4-0.2-2.5-1.5-2.3-2.9C77.4,24.5,78.7,23.5,80.1,23.6L80.1,23.6z
		 M105.4,21.3c1.4,0.8,1.9,2.7,1.1,4.1c-0.8,1.4-2.7,1.9-4.1,1.1l0,0c-1.4-0.8-1.9-2.7-1.1-4.1C102.2,21,104,20.5,105.4,21.3z
		 M60.2,23.1c0.4,1.6-0.5,3.3-2.1,3.7c-1.6,0.4-3.3-0.5-3.7-2.1l0,0c-0.4-1.6,0.5-3.3,2.1-3.7C58.1,20.5,59.8,21.5,60.2,23.1
		L60.2,23.1z M49.2,19.9c0.7,1.7-0.1,3.7-1.7,4.4c-1.7,0.7-3.7-0.1-4.4-1.7c0,0,0,0,0,0c-0.7-1.7,0.1-3.7,1.8-4.4
		C46.5,17.5,48.5,18.3,49.2,19.9z M115.4,18.1c1.5,1.1,1.8,3.2,0.7,4.7c-1.1,1.5-3.2,1.8-4.7,0.7l0,0c-1.5-1.1-1.7-3.2-0.6-4.7
		C111.9,17.3,114,17,115.4,18.1L115.4,18.1z M129.6,16.4c1.5,1.5,1.5,3.9,0.1,5.4c-1.5,1.5-3.9,1.5-5.4,0.1c0,0-0.1-0.1-0.1-0.1
		c-1.5-1.5-1.4-3.9,0.1-5.4C125.7,15,128.1,15,129.6,16.4z M89.3,16.9c1.6,0.4,2.6,2.1,2.1,3.7c-0.4,1.6-2.1,2.6-3.7,2.1
		s-2.6-2.1-2.1-3.7C86.1,17.4,87.7,16.5,89.3,16.9z M72.6,16.8c1.7,0,3,1.4,3,3s-1.4,3-3,3l0,0c-1.7,0-3-1.4-3-3S71,16.8,72.6,16.8
		L72.6,16.8z M36.6,17.1c1.1,1.8,0.4,4.2-1.4,5.2s-4.2,0.4-5.2-1.4s-0.4-4.2,1.4-5.2C33.2,14.6,35.6,15.2,36.6,17.1z M65.6,13.9
		c0.3,1.8-1,3.5-2.8,3.8s-3.5-1-3.8-2.8l0,0c-0.2-1.8,1.1-3.5,2.9-3.7C63.7,10.9,65.3,12.2,65.6,13.9L65.6,13.9z M98.4,11.1
		c1.7,0.7,2.6,2.6,1.9,4.3c-0.7,1.7-2.6,2.6-4.3,1.9c0,0,0,0,0,0c-1.7-0.7-2.5-2.7-1.8-4.4C94.8,11.2,96.7,10.4,98.4,11.1z
		 M80.1,8.7c1.8,0.2,3.1,1.8,3,3.6c-0.2,1.8-1.8,3.1-3.6,3c-0.1,0-0.1,0-0.2,0c-1.8-0.3-3.1-1.9-2.8-3.7C76.8,9.7,78.4,8.5,80.1,8.7
		z M111.4,5.8c1.8,1,2.5,3.3,1.5,5.2s-3.3,2.5-5.2,1.5c0,0-0.1,0-0.1-0.1c-1.8-1.1-2.4-3.4-1.3-5.2C107.4,5.4,109.6,4.8,111.4,5.8z
		 M54.4,8c0.6,2-0.6,4.1-2.6,4.7c-2,0.6-4.1-0.6-4.7-2.6c0,0,0-0.1,0-0.1c-0.5-2,0.7-4.1,2.7-4.6C51.8,4.8,53.8,6,54.4,8L54.4,8z
		 M91.1,0.2c2,0.5,3.3,2.6,2.8,4.6s-2.6,3.3-4.6,2.8c0,0-0.1,0-0.1,0c-2-0.6-3.2-2.7-2.6-4.7C87.1,0.8,89.1-0.4,91.1,0.2L91.1,0.2z
		 M70.1,0c2.1,0,3.8,1.6,3.9,3.7s-1.6,3.8-3.7,3.9c0,0-0.1,0-0.1,0c-2.1,0-3.8-1.8-3.7-3.9C66.4,1.7,68,0,70.1,0z"/>
</g>
</svg>
